<svg width="14" height="15" viewBox="0 0 14 15" fill="none" xmlns="http://www.w3.org/2000/svg">
<path fill-rule="evenodd" clip-rule="evenodd" d="M7.00016 13.9173C10.544 13.9173 13.4168 11.0445 13.4168 7.50065C13.4168 3.95682 10.544 1.08398 7.00016 1.08398C3.45634 1.08398 0.583496 3.95682 0.583496 7.50065C0.583496 11.0445 3.45634 13.9173 7.00016 13.9173ZM7.87516 4.87565C7.87516 5.3589 7.48341 5.75065 7.00016 5.75065C6.51691 5.75065 6.12516 5.3589 6.12516 4.87565C6.12516 4.3924 6.51691 4.00065 7.00016 4.00065C7.48341 4.00065 7.87516 4.3924 7.87516 4.87565ZM6.271 7.64648C6.271 7.24378 6.59746 6.91732 7.00016 6.91732C7.40287 6.91732 7.72933 7.24378 7.72933 7.64648V10.2715C7.72933 10.6742 7.40287 11.0007 7.00016 11.0007C6.59746 11.0007 6.271 10.6742 6.271 10.2715V7.64648Z" fill="#909BA5"/>
</svg>
