<svg width="16" height="16" viewBox="0 0 16 16" fill="none" xmlns="http://www.w3.org/2000/svg">
<path fill-rule="evenodd" clip-rule="evenodd" d="M0.888889 1.77734C0.397969 1.77734 0 2.17531 0 2.66623C0 3.15715 0.397969 3.55512 0.888888 3.55512H11.5556C12.0465 3.55512 12.4444 3.15715 12.4444 2.66623C12.4444 2.17531 12.0465 1.77734 11.5556 1.77734H0.888889ZM15.1111 1.77734C14.6202 1.77734 14.2222 2.17531 14.2222 2.66623C14.2222 3.15715 14.6202 3.55512 15.1111 3.55512C15.602 3.55512 16 3.15715 16 2.66623C16 2.17531 15.602 1.77734 15.1111 1.77734ZM0 7.99924C0 7.50832 0.397969 7.11035 0.888889 7.11035H8.88889C9.37981 7.11035 9.77778 7.50832 9.77778 7.99924C9.77778 8.49016 9.37981 8.88813 8.88889 8.88813H0.88889C0.39797 8.88813 0 8.49016 0 7.99924ZM12.4444 7.11035C11.9535 7.11035 11.5555 7.50832 11.5555 7.99924C11.5555 8.49016 11.9535 8.88813 12.4444 8.88813C12.9354 8.88813 13.3333 8.49016 13.3333 7.99924C13.3333 7.50832 12.9354 7.11035 12.4444 7.11035ZM0 13.3334C0 12.8425 0.397969 12.4445 0.888889 12.4445H11.5556C12.0465 12.4445 12.4444 12.8425 12.4444 13.3334C12.4444 13.8243 12.0465 14.2223 11.5556 14.2223H0.888888C0.397969 14.2223 0 13.8243 0 13.3334ZM15.1111 12.4445C14.6202 12.4445 14.2222 12.8425 14.2222 13.3334C14.2222 13.8243 14.6202 14.2223 15.1111 14.2223C15.602 14.2223 16 13.8243 16 13.3334C16 12.8425 15.602 12.4445 15.1111 12.4445Z" fill="#CFD1D3"/>
</svg>
