<svg xmlns="http://www.w3.org/2000/svg" width="12" height="12" fill="none" viewBox="0 0 12 12"><path fill="#CFD1D3" fill-rule="evenodd" d="M11.1748 0.857422C10.8198 0.857422 10.532 1.14524 10.532 1.50028V10.5003C10.532 10.8553 10.8198 11.1431 11.1748 11.1431C11.5299 11.1431 11.8177 10.8553 11.8177 10.5003V1.50028C11.8177 1.14524 11.5299 0.857422 11.1748 0.857422ZM4.33736 10.0914C4.10723 10.3215 3.74603 10.3407 3.49405 10.1489L3.42822 10.0914L0.761418 7.42459C0.00756703 6.67074 -0.0238435 5.46802 0.667187 4.67677L0.761418 4.57596L3.42822 1.90916C3.67927 1.65811 4.08631 1.65811 4.33736 1.90916C4.56749 2.13929 4.58667 2.50049 4.39489 2.75247L4.33736 2.8183L2.01252 5.14314H8.38279C8.73783 5.14314 9.02565 5.43095 9.02565 5.78599C9.02565 6.14103 8.73783 6.42885 8.38279 6.42885H1.59641C1.60082 6.43489 1.60533 6.44088 1.60995 6.44682L1.67056 6.51546L4.33736 9.18226C4.58841 9.43331 4.58841 9.84035 4.33736 10.0914Z" clip-rule="evenodd"/></svg>