<svg width="20" height="20" viewBox="0 0 20 20" fill="none" xmlns="http://www.w3.org/2000/svg">
<path fill-rule="evenodd" clip-rule="evenodd" d="M2.16675 10C2.16675 5.67379 5.67385 2.16669 10.0001 2.16669C14.3263 2.16669 17.8334 5.67379 17.8334 10C17.8334 14.3263 14.3263 17.8334 10.0001 17.8334C5.67385 17.8334 2.16675 14.3263 2.16675 10ZM10.0001 1.16669C5.12157 1.16669 1.16675 5.12151 1.16675 10C1.16675 14.8785 5.12157 18.8334 10.0001 18.8334C14.8786 18.8334 18.8334 14.8785 18.8334 10C18.8334 5.12151 14.8786 1.16669 10.0001 1.16669ZM10.0001 5.75002C10.2762 5.75002 10.5001 5.97388 10.5001 6.25002V9.50002H13.7501C14.0262 9.50002 14.2501 9.72388 14.2501 10C14.2501 10.2762 14.0262 10.5 13.7501 10.5H10.5001V13.75C10.5001 14.0262 10.2762 14.25 10.0001 14.25C9.72394 14.25 9.50008 14.0262 9.50008 13.75V10.5H6.25008C5.97394 10.5 5.75008 10.2762 5.75008 10C5.75008 9.72388 5.97394 9.50002 6.25008 9.50002H9.50008V6.25002C9.50008 5.97388 9.72394 5.75002 10.0001 5.75002Z" fill="#3A8BFF"/>
</svg>
