<svg xmlns="http://www.w3.org/2000/svg" width="48" height="48" fill="none" viewBox="0 0 48 48"><rect width="48" height="48" fill="#FE8378"/><path fill="#fff" d="M31.0127 31.7088V30.5664H32.3567V17.8992H40.0511V30.5664H41.2943V31.7088H31.0127ZM26.2415 27.576V26.316C27.3167 25.14 28.1287 24.104 28.6775 23.208C27.8935 23.2528 26.9975 23.2696 25.9895 23.2584V22.0824C27.1767 20.548 28.0167 18.8792 28.5095 17.076H30.2063C29.7695 18.2184 29.3551 19.1424 28.9631 19.848C28.5823 20.52 28.0727 21.2648 27.4343 22.0824C28.1735 22.0936 28.8063 22.0656 29.3327 21.9984C29.5791 21.5168 29.8255 20.9344 30.0719 20.2512H31.6343C31.1303 21.6176 30.5871 22.7488 30.0047 23.6448C29.4671 24.4736 28.7335 25.364 27.8039 26.316C29.1031 26.316 30.2399 26.2264 31.2143 26.0472V27.1896C29.7695 27.4584 28.1119 27.5872 26.2415 27.576ZM34.0199 27.4248V30.5664H38.3879V27.4248H34.0199ZM34.0199 23.208V26.2824H38.3879V23.208H34.0199ZM34.0199 19.0416V22.0656H38.3879V19.0416H34.0199ZM26.0063 30.8688V29.5416C27.1599 29.5416 28.0895 29.508 28.7951 29.4408C29.5231 29.3736 30.4135 29.2336 31.4663 29.0208V30.1464C29.7863 30.6504 27.9663 30.8912 26.0063 30.8688Z"/><path fill="#fff" d="M9.10547 29.7936V28.2984C9.94547 27.0664 10.5671 25.8064 10.9703 24.5184C11.3735 23.2192 11.6311 21.64 11.7431 19.7808H13.4903C13.4119 22.1104 13.0311 24.0368 12.3479 25.56C11.6871 27.0496 10.6063 28.4608 9.10547 29.7936ZM13.7255 32.1288V30.9192H15.0695C15.3943 30.9192 15.6351 30.8408 15.7919 30.684C15.9375 30.5384 16.0103 30.2976 16.0103 29.9616V17.2104H17.8919V29.9952C17.8919 31.4176 17.2031 32.1288 15.8255 32.1288H13.7255ZM24.4943 29.7936C22.9823 28.4608 21.8959 27.0496 21.2351 25.56C20.5519 24.0368 20.1711 22.1104 20.0927 19.7808H21.8399C21.9519 21.64 22.2095 23.2192 22.6127 24.5184C23.0159 25.8064 23.6431 27.0664 24.4943 28.2984V29.7936Z"/></svg>