<svg width="38" height="38" viewBox="0 0 38 38" fill="none" xmlns="http://www.w3.org/2000/svg">
<path d="M7.15781 2.37695C6.76173 2.37695 6.33121 2.53647 6.02124 2.87322C5.72849 3.20998 5.53906 3.61762 5.53906 4.043V33.9609C5.53906 34.3686 5.69405 34.8117 6.02124 35.1307C6.34843 35.4674 6.74451 35.627 7.15781 35.627H30.8362C31.2323 35.627 31.6628 35.4674 31.9728 35.1307C32.3 34.7939 32.455 34.3863 32.455 33.9609V11.8061L23.3108 2.37695H7.15781Z" fill="#67CFC4"/>
<path fill-rule="evenodd" clip-rule="evenodd" d="M14.25 13.457H19.606C20.769 13.457 21.6862 13.7398 22.3414 14.3052C22.9474 14.8375 23.2586 15.5526 23.2586 16.4507C23.2586 17.116 23.0948 17.6815 22.7836 18.1472C22.4724 18.5796 22.0302 18.8956 21.4405 19.1284C22.2103 19.2781 22.7836 19.5941 23.1767 20.0764C23.5534 20.5421 23.75 21.1907 23.75 21.9891C23.75 23.1865 23.3405 24.068 22.5379 24.6335C21.85 25.0992 20.8672 25.332 19.6224 25.332H14.25V13.457ZM16.1673 15.0543V18.4471H19.0992C19.9182 18.4471 20.4915 18.2975 20.8354 18.0313C21.163 17.7486 21.3432 17.2996 21.3432 16.6842C21.3432 16.1187 21.163 15.7029 20.8354 15.4534C20.4751 15.1873 19.9182 15.0543 19.132 15.0543H16.1673ZM16.1673 20.0424V23.7346H19.3449C20.0656 23.7346 20.6389 23.6182 21.0484 23.3854C21.5725 23.086 21.8346 22.6203 21.8346 21.955C21.8346 21.2731 21.638 20.7908 21.2613 20.4915C20.8682 20.1921 20.2458 20.0424 19.394 20.0424H16.1673Z" fill="white"/>
<path d="M14.25 13.457V13.3383C14.1844 13.3383 14.1312 13.3914 14.1312 13.457H14.25ZM22.3414 14.3052L22.4197 14.216L22.419 14.2153L22.3414 14.3052ZM22.7836 18.1472L22.8801 18.2166L22.8824 18.2131L22.7836 18.1472ZM21.4405 19.1284L21.3969 19.018C21.3478 19.0374 21.3174 19.0868 21.3223 19.1393C21.3271 19.1919 21.3661 19.2349 21.4179 19.245L21.4405 19.1284ZM23.1767 20.0764L23.269 20.0017L23.2688 20.0014L23.1767 20.0764ZM22.5379 24.6335L22.6045 24.7319L22.6063 24.7306L22.5379 24.6335ZM14.25 25.332H14.1312C14.1312 25.3976 14.1844 25.4508 14.25 25.4508V25.332ZM16.1673 15.0543V14.9355C16.1017 14.9355 16.0486 14.9887 16.0486 15.0543H16.1673ZM16.1673 18.4471H16.0486C16.0486 18.5127 16.1017 18.5659 16.1673 18.5659V18.4471ZM20.8354 18.0313L20.9082 18.1254L20.913 18.1212L20.8354 18.0313ZM20.8354 15.4534L20.9074 15.359L20.906 15.3579L20.8354 15.4534ZM16.1673 20.0424V19.9236C16.1017 19.9236 16.0486 19.9768 16.0486 20.0424H16.1673ZM16.1673 23.7346H16.0486C16.0486 23.8002 16.1017 23.8534 16.1673 23.8534V23.7346ZM21.0484 23.3854L21.1071 23.4886L21.1072 23.4885L21.0484 23.3854ZM21.2613 20.4915L21.3352 20.3985L21.3332 20.397L21.2613 20.4915ZM14.25 13.5758H19.606V13.3383H14.25V13.5758ZM19.606 13.5758C20.7506 13.5758 21.6368 13.854 22.2638 14.3951L22.419 14.2153C21.7356 13.6256 20.7873 13.3383 19.606 13.3383V13.5758ZM22.263 14.3945C22.8409 14.902 23.1399 15.5833 23.1399 16.4507H23.3774C23.3774 15.5219 23.0539 14.773 22.4197 14.216L22.263 14.3945ZM23.1399 16.4507C23.1399 17.0958 22.9813 17.6376 22.6849 18.0812L22.8824 18.2131C23.2083 17.7253 23.3774 17.1362 23.3774 16.4507H23.1399ZM22.6872 18.0778C22.3923 18.4876 21.9708 18.7914 21.3969 19.018L21.4841 19.2389C22.0896 18.9998 22.5525 18.6716 22.88 18.2165L22.6872 18.0778ZM21.4179 19.245C22.1671 19.3907 22.713 19.6955 23.0847 20.1515L23.2688 20.0014C22.8542 19.4928 22.2535 19.1655 21.4632 19.0119L21.4179 19.245ZM23.0844 20.1511C23.4393 20.5898 23.6312 21.2093 23.6312 21.9891H23.8687C23.8687 21.1722 23.6676 20.4944 23.269 20.0017L23.0844 20.1511ZM23.6312 21.9891C23.6312 23.1568 23.2339 23.9978 22.4695 24.5364L22.6063 24.7306C23.4471 24.1382 23.8687 23.2163 23.8687 21.9891H23.6312ZM22.4714 24.5352C21.8108 24.9823 20.855 25.2133 19.6224 25.2133V25.4508C20.8795 25.4508 21.8892 25.2161 22.6045 24.7318L22.4714 24.5352ZM19.6224 25.2133H14.25V25.4508H19.6224V25.2133ZM14.3688 25.332V13.457H14.1312V25.332H14.3688ZM16.0486 15.0543V18.4471H16.2861V15.0543H16.0486ZM16.1673 18.5659H19.0992V18.3284H16.1673V18.5659ZM19.0992 18.5659C19.9276 18.5659 20.5331 18.4154 20.9081 18.1253L20.7628 17.9374C20.4498 18.1795 19.9087 18.3284 19.0992 18.3284V18.5659ZM20.913 18.1212C21.2745 17.8092 21.4619 17.3222 21.4619 16.6842H21.2244C21.2244 17.2769 21.0515 17.688 20.7578 17.9414L20.913 18.1212ZM21.4619 16.6842C21.4619 16.0937 21.2729 15.6373 20.9074 15.359L20.7635 15.5479C21.0531 15.7685 21.2244 16.1437 21.2244 16.6842H21.4619ZM20.906 15.3579C20.5151 15.0693 19.9272 14.9355 19.132 14.9355V15.173C19.9091 15.173 20.4351 15.3054 20.7649 15.549L20.906 15.3579ZM19.132 14.9355H16.1673V15.173H19.132V14.9355ZM16.0486 20.0424V23.7346H16.2861V20.0424H16.0486ZM16.1673 23.8534H19.3449V23.6159H16.1673V23.8534ZM19.3449 23.8534C20.0759 23.8534 20.6725 23.7357 21.1071 23.4886L20.9897 23.2821C20.6053 23.5007 20.0553 23.6159 19.3449 23.6159V23.8534ZM21.1072 23.4885C21.3856 23.3295 21.599 23.1234 21.7419 22.8649C21.8846 22.6068 21.9533 22.3034 21.9533 21.955H21.7158C21.7158 22.272 21.6535 22.534 21.5341 22.75C21.415 22.9654 21.2352 23.1419 20.9895 23.2822L21.1072 23.4885ZM21.9533 21.955C21.9533 21.2507 21.7495 20.7278 21.3352 20.3985L21.1874 20.5844C21.5265 20.8539 21.7158 21.2956 21.7158 21.955H21.9533ZM21.3332 20.397C20.9092 20.074 20.2549 19.9236 19.394 19.9236V20.1611C20.2367 20.1611 20.8272 20.3101 21.1893 20.5859L21.3332 20.397ZM19.394 19.9236H16.1673V20.1611H19.394V19.9236Z" fill="white"/>
<path d="M32.4575 11.8044L24.7488 11.8763C24.3441 11.8763 23.9041 11.7156 23.5874 11.3763C23.253 11.0728 23.3127 10.6263 23.3127 10.1978V2.375L32.4575 11.8044Z" fill="#A6E3D9"/>
</svg>
