<svg width="21" height="20" viewBox="0 0 21 20" fill="none" xmlns="http://www.w3.org/2000/svg">
<path fill-rule="evenodd" clip-rule="evenodd" d="M8.34066 3.95169C8.68222 3.67143 8.73192 3.16734 8.45166 2.82577C8.17141 2.48421 7.66732 2.43451 7.32575 2.71477L3.32575 5.99682C3.14219 6.14743 3.03502 6.3718 3.03323 6.60923C3.03143 6.84666 3.13519 7.07262 3.31645 7.22599L7.31645 10.6106C7.65374 10.896 8.15852 10.8539 8.44391 10.5166C8.72931 10.1794 8.68724 9.67458 8.34996 9.38918L6.07776 7.46656H12.2908C14.5229 7.46656 16.3665 9.32786 16.3665 11.6666C16.3665 14.0053 14.5229 15.8666 12.2908 15.8666H5.71917C5.27734 15.8666 4.91917 16.2247 4.91917 16.6666C4.91917 17.1084 5.27734 17.4666 5.71917 17.4666H12.2908C15.4443 17.4666 17.9665 14.8507 17.9665 11.6666C17.9665 8.48241 15.4443 5.86656 12.2908 5.86656H6.00691L8.34066 3.95169Z" fill="#474C59"/>
</svg>
