<svg width="20" height="20" viewBox="0 0 20 20" fill="none" xmlns="http://www.w3.org/2000/svg">
<path fill-rule="evenodd" clip-rule="evenodd" d="M7.65114 3.71956C7.86462 3.5444 7.89568 3.22934 7.72052 3.01586C7.54536 2.80239 7.23031 2.77132 7.01683 2.94649L3.01683 6.22854C2.9021 6.32267 2.83512 6.4629 2.834 6.61129C2.83288 6.75969 2.89773 6.90091 3.01101 6.99677L7.01102 10.3814C7.22182 10.5598 7.53731 10.5335 7.71568 10.3227C7.89405 10.1119 7.86776 9.79637 7.65696 9.618L4.75956 7.16636H11.7916C14.1964 7.16636 16.1673 9.16914 16.1673 11.6664C16.1673 14.1636 14.1964 16.1664 11.7916 16.1664H5.21995C4.94381 16.1664 4.71995 16.3902 4.71995 16.6664C4.71995 16.9425 4.94381 17.1664 5.21995 17.1664H11.7916C14.7723 17.1664 17.1673 14.692 17.1673 11.6664C17.1673 8.64073 14.7723 6.16636 11.7916 6.16636H4.66911L7.65114 3.71956Z" fill="#1B1F26"/>
</svg>
