<svg width="20" height="20" viewBox="0 0 20 20" fill="none" xmlns="http://www.w3.org/2000/svg">
<path fill-rule="evenodd" clip-rule="evenodd" d="M13.1376 2.56505C13.6033 2.09941 14.3582 2.09941 14.8238 2.56505L17.2717 5.01289C17.7373 5.47853 17.7373 6.23349 17.2717 6.69913L7.72514 16.2457L7.62956 16.3413L7.49884 16.3757L2.84796 17.5996C2.67598 17.6448 2.49291 17.5953 2.36716 17.4696C2.24141 17.3439 2.19192 17.1608 2.23718 16.9888L3.46109 12.3379L3.49549 12.2072L3.59108 12.1116L13.1376 2.56505ZM14.1167 3.27216C14.0416 3.19704 13.9198 3.19704 13.8447 3.27216L11.6143 5.50259L14.3341 8.22245L16.5646 5.99202C16.6397 5.9169 16.6397 5.79511 16.5646 5.72L14.1167 3.27216ZM4.39376 12.7231L10.9072 6.2097L13.627 8.92956L7.11362 15.443L3.42239 16.4144L4.39376 12.7231ZM10.0535 16.7261C9.77735 16.7261 9.55349 16.9499 9.55349 17.2261C9.55349 17.5022 9.77735 17.7261 10.0535 17.7261H17.3617C17.6378 17.7261 17.8617 17.5022 17.8617 17.2261C17.8617 16.9499 17.6378 16.7261 17.3617 16.7261H10.0535Z" fill="#3A8BFF"/>
</svg>
