<svg width="20" height="20" viewBox="0 0 20 20" fill="none" xmlns="http://www.w3.org/2000/svg">
<path fill-rule="evenodd" clip-rule="evenodd" d="M4.10355 3.39645C3.90829 3.20118 3.59171 3.20118 3.39645 3.39645C3.20118 3.59171 3.20118 3.90829 3.39645 4.10355L9.29285 9.99995L3.39644 15.8964C3.20118 16.0917 3.20119 16.4083 3.39645 16.6036C3.59171 16.7988 3.9083 16.7988 4.10356 16.6035L9.99995 10.7071L15.8964 16.6036C16.0917 16.7988 16.4083 16.7988 16.6036 16.6036C16.7988 16.4083 16.7988 16.0917 16.6036 15.8964L10.7071 9.99995L16.6034 4.10355C16.7986 3.90829 16.7986 3.5917 16.6033 3.39644C16.4081 3.20118 16.0915 3.20119 15.8962 3.39645L9.99995 9.29284L4.10355 3.39645Z" fill="#1B1F26"/>
</svg>
