<svg width="21" height="20" viewBox="0 0 21 20" fill="none" xmlns="http://www.w3.org/2000/svg">
<path fill-rule="evenodd" clip-rule="evenodd" d="M17.0339 4.68404C17.3463 4.37163 17.3463 3.86509 17.0339 3.55267C16.7215 3.24025 16.215 3.24025 15.9025 3.55267L10.4561 8.99916L5.23092 3.77403C4.9185 3.46161 4.41197 3.46161 4.09955 3.77403C3.78713 4.08645 3.78713 4.59298 4.09955 4.9054L9.32468 10.1305L4.05072 15.4045C3.7383 15.7169 3.7383 16.2234 4.05072 16.5359C4.36314 16.8483 4.86967 16.8483 5.18209 16.5359L10.4561 11.2619L15.9514 16.7572C16.2638 17.0696 16.7703 17.0696 17.0827 16.7572C17.3952 16.4448 17.3952 15.9383 17.0827 15.6258L11.5874 10.1305L17.0339 4.68404Z" fill="#474C59"/>
</svg>
