<svg width="20" height="20" viewBox="0 0 20 20" fill="none" xmlns="http://www.w3.org/2000/svg">
<path fill-rule="evenodd" clip-rule="evenodd" d="M17.0302 5.17831C17.6159 4.59252 17.6159 3.64277 17.0302 3.05699C16.4444 2.4712 15.4946 2.4712 14.9088 3.05699L9.95738 8.00844L5.22737 3.27843C4.64158 2.69264 3.69183 2.69264 3.10605 3.27843C2.52026 3.86421 2.52026 4.81396 3.10605 5.39975L7.83606 10.1298L3.05702 14.9088C2.47123 15.4946 2.47123 16.4443 3.05702 17.0301C3.6428 17.6159 4.59255 17.6159 5.17834 17.0301L9.95738 12.2511L14.9579 17.2516C15.5437 17.8374 16.4934 17.8374 17.0792 17.2516C17.665 16.6658 17.665 15.716 17.0792 15.1302L12.0787 10.1298L17.0302 5.17831Z" fill="#ACB4BF"/>
</svg>
