<svg width="12" height="12" viewBox="0 0 12 12" fill="none" xmlns="http://www.w3.org/2000/svg">
<path fill-rule="evenodd" clip-rule="evenodd" d="M5.99902 11.5C9.03659 11.5 11.499 9.03757 11.499 6C11.499 2.96243 9.03659 0.5 5.99902 0.5C2.96146 0.5 0.499023 2.96243 0.499023 6C0.499023 9.03757 2.96146 11.5 5.99902 11.5ZM5.12402 4C5.12402 3.51675 5.51577 3.125 5.99902 3.125C6.48227 3.125 6.87402 3.51675 6.87402 4C6.87402 4.12463 6.84797 4.24317 6.80101 4.35048L6.3074 6.71978C6.23775 7.05412 5.7603 7.05412 5.69065 6.71978L5.19704 4.35048C5.15008 4.24317 5.12402 4.12463 5.12402 4ZM6.64361 8.31958C6.64361 8.67558 6.35502 8.96417 5.99902 8.96417C5.64303 8.96417 5.35444 8.67558 5.35444 8.31958C5.35444 7.96359 5.64303 7.675 5.99902 7.675C6.35502 7.675 6.64361 7.96359 6.64361 8.31958Z" fill="#F28C24"/>
</svg>
