<svg xmlns="http://www.w3.org/2000/svg" width="21" height="20" fill="none" viewBox="0 0 21 20"><path fill="#474C59" fill-rule="evenodd" d="M5.52995 1.51966C5.97178 1.51966 6.32995 1.87783 6.32995 2.31966V14.1706H12.7589C13.2007 14.1706 13.5589 14.5287 13.5589 14.9706C13.5589 15.4124 13.2007 15.7706 12.7589 15.7706H5.52995C5.08812 15.7706 4.72995 15.4124 4.72995 14.9706V6.05535L2.36739 6.05535C1.92556 6.05535 1.56739 5.69717 1.56739 5.25535C1.56739 4.81352 1.92556 4.45535 2.36739 4.45535L4.72995 4.45535V2.31966C4.72995 1.87783 5.08812 1.51966 5.52995 1.51966ZM16.2699 13.9592L16.2699 5.02944C16.2699 4.58761 15.9117 4.22944 15.4699 4.22944L8.24092 4.22944C7.79909 4.22944 7.44092 4.58761 7.44092 5.02944C7.44092 5.47127 7.79909 5.82944 8.24092 5.82944L14.6699 5.82944L14.6699 17.6803C14.6699 18.1222 15.028 18.4803 15.4699 18.4803C15.9117 18.4803 16.2699 18.1222 16.2699 17.6803V15.5592H18.6324C19.0743 15.5592 19.4324 15.201 19.4324 14.7592C19.4324 14.3174 19.0743 13.9592 18.6324 13.9592H16.2699Z" clip-rule="evenodd"/></svg>