<svg width="21" height="20" viewBox="0 0 21 20" fill="none" xmlns="http://www.w3.org/2000/svg">
<path fill-rule="evenodd" clip-rule="evenodd" d="M5.53092 1.51953C5.97275 1.51953 6.33092 1.8777 6.33092 2.31953V14.1704H12.7599C13.2017 14.1704 13.5599 14.5286 13.5599 14.9704C13.5599 15.4123 13.2017 15.7704 12.7599 15.7704H5.53092C5.0891 15.7704 4.73092 15.4123 4.73092 14.9704V6.05522L2.36836 6.05522C1.92653 6.05522 1.56836 5.69704 1.56836 5.25522C1.56836 4.81339 1.92653 4.45522 2.36836 4.45522L4.73092 4.45522V2.31953C4.73092 1.8777 5.0891 1.51953 5.53092 1.51953ZM16.2708 13.9591L16.2708 5.02931C16.2708 4.58748 15.9127 4.22931 15.4708 4.22931L8.24189 4.22931C7.80006 4.22931 7.44189 4.58748 7.44189 5.02931C7.44189 5.47114 7.80006 5.82931 8.24189 5.82931L14.6708 5.82931L14.6708 17.6802C14.6708 18.122 15.029 18.4802 15.4708 18.4802C15.9127 18.4802 16.2708 18.122 16.2708 17.6802V15.5591H18.6334C19.0752 15.5591 19.4334 15.2009 19.4334 14.7591C19.4334 14.3173 19.0752 13.9591 18.6334 13.9591H16.2708Z" fill="#3A8BFF"/>
</svg>
