<svg width="20" height="20" viewBox="0 0 20 20" fill="none" xmlns="http://www.w3.org/2000/svg">
<path fill-rule="evenodd" clip-rule="evenodd" d="M16.5339 4.68404C16.8463 4.37163 16.8463 3.86509 16.5339 3.55267C16.2215 3.24025 15.715 3.24025 15.4025 3.55267L9.95605 8.99916L4.73092 3.77403C4.4185 3.46161 3.91197 3.46161 3.59955 3.77403C3.28713 4.08645 3.28713 4.59298 3.59955 4.9054L8.82468 10.1305L3.55072 15.4045C3.2383 15.7169 3.2383 16.2234 3.55072 16.5359C3.86314 16.8483 4.36967 16.8483 4.68209 16.5359L9.95605 11.2619L15.4514 16.7572C15.7638 17.0696 16.2703 17.0696 16.5827 16.7572C16.8952 16.4448 16.8952 15.9383 16.5827 15.6259L11.0874 10.1305L16.5339 4.68404Z" fill="#F33131"/>
</svg>
