<svg width="24" height="24" viewBox="0 0 24 24" fill="none" xmlns="http://www.w3.org/2000/svg">
<rect width="24" height="24" rx="4" fill="#E6ECFF"/>
<path fill-rule="evenodd" clip-rule="evenodd" d="M17.2445 7.76698C17.5049 7.50663 17.5049 7.08452 17.2445 6.82417C16.9842 6.56382 16.5621 6.56382 16.3017 6.82417L11.9634 11.1625L7.80213 7.00125C7.54178 6.7409 7.11967 6.7409 6.85932 7.00125C6.59898 7.2616 6.59898 7.68371 6.85932 7.94406L11.0206 12.1053L6.82026 16.3056C6.55991 16.566 6.55991 16.9881 6.82026 17.2484C7.08061 17.5088 7.50272 17.5088 7.76307 17.2484L11.9634 13.0481L16.3408 17.4255C16.6011 17.6859 17.0232 17.6859 17.2836 17.4255C17.5439 17.1652 17.5439 16.7431 17.2836 16.4827L12.9062 12.1053L17.2445 7.76698Z" fill="#3A8BFF"/>
</svg>
