<svg xmlns="http://www.w3.org/2000/svg" width="20" height="20" fill="none" viewBox="0 0 20 20"><rect width="20" height="20" fill="#3A8BFF" rx="10"/><path fill="#fff" fill-rule="evenodd" d="M13.4561 7.53016C13.7164 7.26981 13.7164 6.8477 13.4561 6.58735C13.1957 6.327 12.7736 6.327 12.5133 6.58735L9.97861 9.12201L7.55468 6.69807C7.29433 6.43772 6.87222 6.43772 6.61187 6.69807C6.35152 6.95842 6.35152 7.38053 6.61187 7.64088L9.0358 10.0648L6.58735 12.5133C6.327 12.7736 6.327 13.1957 6.58735 13.4561C6.8477 13.7164 7.26981 13.7164 7.53016 13.4561L9.97861 11.0076L12.5378 13.5668C12.7981 13.8271 13.2202 13.8271 13.4806 13.5668C13.7409 13.3064 13.7409 12.8843 13.4806 12.624L10.9214 10.0648L13.4561 7.53016Z" clip-rule="evenodd"/></svg>