<svg width="20" height="20" viewBox="0 0 20 20" fill="none" xmlns="http://www.w3.org/2000/svg">
<path fill-rule="evenodd" clip-rule="evenodd" d="M10.5006 2.08301C10.5006 1.80687 10.2767 1.58301 10.0006 1.58301C9.72444 1.58301 9.50058 1.80687 9.50058 2.08301V12.5426L5.35421 8.39612C5.15895 8.20086 4.84236 8.20086 4.6471 8.39612C4.45184 8.59138 4.45183 8.90796 4.64709 9.10322L9.64702 14.1032C9.74079 14.197 9.86797 14.2497 10.0006 14.2497C10.1332 14.2497 10.2604 14.197 10.3541 14.1032L15.3541 9.10322C15.5493 8.90796 15.5493 8.59138 15.3541 8.39612C15.1588 8.20086 14.8422 8.20086 14.647 8.39612L10.5006 12.5426V2.08301ZM3.33398 16.9997C3.05784 16.9997 2.83398 17.2235 2.83398 17.4997C2.83398 17.7758 3.05784 17.9997 3.33398 17.9997H16.6673C16.9435 17.9997 17.1673 17.7758 17.1673 17.4997C17.1673 17.2235 16.9435 16.9997 16.6673 16.9997H3.33398Z" fill="#1B1F26"/>
</svg>
