<svg xmlns="http://www.w3.org/2000/svg" width="18" height="18" fill="none" viewBox="0 0 18 18"><path fill="#A3BAD9" d="M16.2405 14.9997L14.1041 12.8645C15.035 11.6701 15.5955 10.1737 15.5955 8.54578C15.5955 4.66053 12.4337 1.5 8.54774 1.5C4.66142 1.5 1.5 4.66053 1.5 8.54578C1.5 12.4307 4.66142 15.5916 8.54774 15.5916C10.1738 15.5916 11.6689 15.0329 12.8623 14.1042L14.9991 16.2404C15.3441 16.585 15.9016 16.5867 16.2442 16.2445C16.5869 15.9016 16.5849 15.345 16.2405 14.9997V14.9997Z"/><ellipse cx="8.547" cy="8.549" fill="#fff" rx="5.648" ry="5.647"/><path fill="#A3BAD9" d="M10.9226 7.87471H9.21903V6.1713C9.21903 5.815 8.91832 5.52612 8.54781 5.52612C8.17697 5.52612 7.87659 5.81465 7.87659 6.17131V7.87471H6.17272C5.8163 7.87471 5.52734 8.17534 5.52734 8.54607C5.52734 8.91681 5.81597 9.2171 6.17272 9.2171H7.8766V10.9202C7.8766 11.2765 8.17697 11.5657 8.54781 11.5657C8.91832 11.5657 9.21903 11.2768 9.21903 10.9202V9.21709H10.9226C11.279 9.21709 11.5683 8.91679 11.5683 8.54606C11.5683 8.17532 11.279 7.87469 10.9226 7.87469V7.87471Z"/></svg>