<svg width="38" height="38" viewBox="0 0 38 38" fill="none" xmlns="http://www.w3.org/2000/svg">
<path d="M7.1578 2.37695C6.76172 2.37695 6.33121 2.53647 6.02124 2.87322C5.72849 3.20998 5.53906 3.61762 5.53906 4.043V33.9609C5.53906 34.3686 5.69405 34.8117 6.02124 35.1307C6.34843 35.4674 6.7445 35.627 7.1578 35.627H30.8361C31.2322 35.627 31.6627 35.4674 31.9727 35.1307C32.2998 34.7939 32.4548 34.3863 32.4548 33.9609V11.8061L23.3107 2.37695H7.1578Z" fill="#87CD86"/>
<path d="M32.4574 11.8044L24.7488 11.8763C24.3441 11.8763 23.9041 11.7156 23.5874 11.3763C23.253 11.0728 23.3127 10.6263 23.3127 10.1978V2.375L32.4574 11.8044Z" fill="#C1E5C3"/>
<path d="M23.1232 24.9391C23.5333 24.9391 23.8657 24.6067 23.8657 24.1966C23.8657 23.7866 23.5333 23.4542 23.1232 23.4542H16.1379V19.8298H22.3706C22.7807 19.8298 23.1131 19.4974 23.1131 19.0874C23.1131 18.6773 22.7807 18.3449 22.3706 18.3449H16.1379V15.0239H22.8112C23.2212 15.0239 23.5536 14.6915 23.5536 14.2815C23.5536 13.8715 23.2212 13.5391 22.8112 13.5391H15.1024C14.6683 13.5391 14.3164 13.891 14.3164 14.325V24.1531C14.3164 24.5872 14.6683 24.9391 15.1024 24.9391H23.1232Z" fill="white" stroke="white" stroke-width="0.475"/>
</svg>
