<svg width="38" height="38" viewBox="0 0 38 38" fill="none" xmlns="http://www.w3.org/2000/svg">
<path d="M7.15781 2.37695C6.76173 2.37695 6.33121 2.53647 6.02124 2.87322C5.72849 3.20998 5.53906 3.61762 5.53906 4.043V33.9609C5.53906 34.3686 5.69405 34.8117 6.02124 35.1307C6.34843 35.4674 6.74451 35.627 7.15781 35.627H30.8362C31.2323 35.627 31.6628 35.4674 31.9728 35.1307C32.3 34.7939 32.455 34.3863 32.455 33.9609V11.8061L23.3108 2.37695H7.15781Z" fill="#5ACC9B"/>
<path d="M14.215 14.252L17.9646 19.4249L13.7305 25.3032H16.5532L19.2917 21.2204L22.0091 25.3032H24.8319L20.5977 19.4249L24.3474 14.252H21.5457L19.2917 17.6293L17.0166 14.252H14.215Z" fill="white"/>
<path d="M32.4575 11.8044L24.7488 11.8763C24.3441 11.8763 23.9041 11.7156 23.5874 11.3763C23.253 11.0728 23.3127 10.6263 23.3127 10.1978V2.375L32.4575 11.8044Z" fill="#BDEBD7"/>
</svg>
