<svg width="38" height="38" viewBox="0 0 38 38" fill="none" xmlns="http://www.w3.org/2000/svg">
<path d="M7.15785 2.37695C6.76176 2.37695 6.33124 2.53646 6.02125 2.8732C5.7285 3.20994 5.53906 3.61757 5.53906 4.04293V33.9596C5.53906 34.3673 5.69405 34.8103 6.02125 35.1294C6.34846 35.4661 6.74454 35.6256 7.15785 35.6256H30.8369C31.233 35.6256 31.6636 35.4661 31.9735 35.1294C32.3007 34.7926 32.4557 34.385 32.4557 33.9596V11.5203L23.7474 2.37695H7.15785Z" fill="#A97FF6"/>
<path d="M32.4544 11.5184H25.1904C24.8055 11.5184 24.387 11.3647 24.0858 11.0402C23.7678 10.7499 23.8246 10.3229 23.8246 9.91308L23.7461 2.375L32.4544 11.5184Z" fill="#C5A6FF"/>
<g clip-path="url(#clip0_7599_306833)">
<path d="M12.1672 15.899C13.3208 15.899 14.2029 16.279 14.8136 17.0662C15.37 17.7719 15.655 18.7626 15.655 20.0248H10.4029C10.4572 20.6762 10.6336 21.1783 10.9322 21.5176C11.2308 21.8569 11.665 22.0333 12.2215 22.0333C12.6965 22.0333 13.0765 21.9248 13.375 21.7076C13.6058 21.5312 13.8093 21.2462 13.9993 20.8526H15.5465C15.3836 21.504 15.0579 22.0605 14.5693 22.4948C13.945 23.024 13.1715 23.2955 12.235 23.2955C11.19 23.2955 10.3622 22.9698 9.75147 22.3319C9.10004 21.6669 8.77433 20.7576 8.77433 19.5905C8.77433 18.5455 9.0729 17.6769 9.69719 16.9712C10.2943 16.2519 11.1222 15.899 12.1672 15.899ZM12.2079 17.1612C11.6922 17.1612 11.2986 17.2969 11 17.5955C10.715 17.8805 10.525 18.3012 10.43 18.8576H14.04C13.9043 17.7176 13.2936 17.1612 12.2079 17.1612Z" fill="white"/>
<path d="M25.7414 15.899C26.895 15.899 27.7771 16.279 28.3878 17.0662C28.9443 17.7719 29.2293 18.7626 29.2293 20.0248H23.9771C24.0314 20.6762 24.2078 21.1783 24.5064 21.5176C24.805 21.8569 25.2393 22.0333 25.7957 22.0333C26.2707 22.0333 26.6507 21.9248 26.9493 21.7076C27.18 21.5312 27.3835 21.2462 27.5735 20.8526H29.1207C28.9578 21.504 28.6321 22.0605 28.1435 22.4948C27.5193 23.024 26.7457 23.2955 25.8093 23.2955C24.7643 23.2955 23.9364 22.9698 23.3257 22.3319C22.6743 21.6669 22.3485 20.7576 22.3485 19.5905C22.3485 18.5455 22.6471 17.6769 23.2714 16.9712C23.8685 16.2519 24.6964 15.899 25.7414 15.899ZM25.7821 17.1612C25.2664 17.1612 24.8728 17.2969 24.5743 17.5955C24.2893 17.8805 24.0993 18.3012 24.0043 18.8576H27.6143C27.4785 17.7176 26.8678 17.1612 25.7821 17.1612Z" fill="white"/>
<path d="M15.5323 16.089H17.3373L18.8031 18.2333L20.2552 16.089H22.0602L19.6445 19.3733L22.3723 23.1055H20.5538L18.8031 20.5133L17.0388 23.1055H15.2202L17.9481 19.3733L15.5323 16.089Z" fill="white"/>
</g>
<defs>
<clipPath id="clip0_7599_306833">
<rect width="21.4881" height="20.1867" fill="white" transform="translate(8.36719 8.31445)"/>
</clipPath>
</defs>
</svg>
