<svg width="20" height="20" viewBox="0 0 20 20" fill="none" xmlns="http://www.w3.org/2000/svg">
<path fill-rule="evenodd" clip-rule="evenodd" d="M10.0007 19.1668C4.93804 19.1668 0.833984 15.0628 0.833984 10.0002C0.833984 4.93755 4.93804 0.833496 10.0007 0.833496C15.0633 0.833496 19.1673 4.93755 19.1673 10.0002C19.1673 15.0628 15.0633 19.1668 10.0007 19.1668ZM14.0747 13.2753C14.0747 13.0634 13.9906 12.8603 13.8407 12.7105L11.5823 10.0001L13.8408 7.28967C13.9907 7.13994 14.0749 6.93677 14.0749 6.72491C14.0749 6.51305 13.9907 6.30989 13.8408 6.16015C13.691 6.0103 13.4879 5.9261 13.276 5.9261C13.0641 5.9261 12.8609 6.0103 12.7112 6.16015L10.0008 8.41861L7.2904 6.16015C7.14066 6.01027 6.93749 5.92607 6.72563 5.92607C6.51377 5.92607 6.3106 6.01027 6.16086 6.16015C6.00483 6.31618 5.92676 6.52057 5.92676 6.72497C5.92653 6.93689 6.01078 7.14017 6.16086 7.28979L8.41935 10.0001L6.16086 12.7105C6.00483 12.8666 5.92676 13.071 5.92676 13.2753C5.92658 13.4872 6.01082 13.6905 6.16086 13.8401C6.31063 13.9899 6.51379 14.0741 6.72563 14.0741C6.93747 14.0741 7.14063 13.9899 7.2904 13.8401L10.0008 11.5817L12.7112 13.8401C12.8609 13.99 13.0641 14.0742 13.2759 14.0742C13.4878 14.0742 13.691 13.99 13.8407 13.8401C13.9906 13.6904 14.0747 13.4872 14.0747 13.2753Z" fill="#F36161"/>
</svg>
