<svg width="24" height="24" viewBox="0 0 24 24" fill="none" xmlns="http://www.w3.org/2000/svg">
<rect width="24" height="24" rx="4" fill="#E6ECFF"/>
<path fill-rule="evenodd" clip-rule="evenodd" d="M6.66927 10.3346V7.0013H10.112L11.4911 8.65109C11.6178 8.80262 11.8051 8.89019 12.0026 8.89019H17.3359V10.3346H6.66927ZM5.33594 11.0013V6.96427C5.33594 6.2464 5.91913 5.66797 6.63418 5.66797H10.4237C10.6212 5.66797 10.8085 5.75554 10.9352 5.90707L12.3142 7.55686H17.371C18.0861 7.55686 18.6693 8.13528 18.6693 8.85315V11.0013V17.0383C18.6693 17.7562 18.0861 18.3346 17.371 18.3346H6.63418C5.91913 18.3346 5.33594 17.7562 5.33594 17.0383V11.0013ZM17.3359 11.668V17.0013H6.66927V11.668H17.3359Z" fill="#3A8BFF"/>
</svg>
