<svg width="46" height="47" viewBox="0 0 46 47" fill="none" xmlns="http://www.w3.org/2000/svg">
<rect width="46" height="46" transform="translate(0 0.5)" fill="white"/>
<path d="M2.7059 14.4358C2.7059 14.4358 19.6177 14.4358 22.3236 14.4358C20.4601 14.0631 19.0728 11.2705 18.8584 10.8164C18.8383 10.7736 18.821 10.7319 18.8026 10.6884C18.2739 9.43584 17.0454 8.61816 15.6812 8.61816H5.41178C3.91737 8.61816 2.7059 9.82963 2.7059 11.324V14.4358ZM2.7059 14.4358H35.1765C36.6709 14.4358 37.8824 15.6473 37.8824 17.1417V37.0299C37.8824 38.5243 36.6709 39.7358 35.1765 39.7358H5.41178C3.91737 39.7358 2.7059 38.5243 2.7059 37.0299V14.4358Z" stroke="#3A8BFF" stroke-width="2"/>
<path fill-rule="evenodd" clip-rule="evenodd" d="M7.5747 21.4368C7.89523 20.2589 8.96484 19.4414 10.1856 19.4414H39.7536C41.5371 19.4414 42.8328 21.1368 42.3645 22.8578L38.4253 37.3342C38.1048 38.5122 37.0352 39.3296 35.8144 39.3296H6.24646C4.46292 39.3296 3.16723 37.6343 3.63552 35.9133L7.5747 21.4368Z" fill="#3A8BFF" stroke="#3A8BFF" stroke-width="1.35294"/>
</svg>
