<svg width="16" height="16" viewBox="0 0 16 16" fill="none" xmlns="http://www.w3.org/2000/svg">
<path fill-rule="evenodd" clip-rule="evenodd" d="M3 1.66666C1.89543 1.66666 1 2.56209 1 3.66666V12.3333C1 13.4379 1.89543 14.3333 3 14.3333H13C14.1046 14.3333 15 13.4379 15 12.3333V3.66666C15 2.56209 14.1046 1.66666 13 1.66666H3ZM2.33333 3.66666C2.33333 3.29847 2.63181 2.99999 3 2.99999H13C13.3682 2.99999 13.6667 3.29847 13.6667 3.66666V5.66666H2.33333V3.66666ZM2.33333 6.99999V12.3333C2.33333 12.7015 2.63181 13 3 13H13C13.3682 13 13.6667 12.7015 13.6667 12.3333V6.99999H2.33333ZM3.33333 4.33332C3.33333 3.96513 3.63181 3.66666 4 3.66666H4.33333C4.70152 3.66666 5 3.96513 5 4.33332C5 4.70151 4.70152 4.99999 4.33333 4.99999H4C3.63181 4.99999 3.33333 4.70151 3.33333 4.33332ZM6.33333 3.66666C5.96514 3.66666 5.66667 3.96513 5.66667 4.33332C5.66667 4.70151 5.96514 4.99999 6.33333 4.99999H6.66667C7.03486 4.99999 7.33333 4.70151 7.33333 4.33332C7.33333 3.96513 7.03486 3.66666 6.66667 3.66666H6.33333Z" fill="currentColor"/>
</svg>
