<svg width="38" height="38" viewBox="0 0 38 38" fill="none" xmlns="http://www.w3.org/2000/svg">
<path d="M7.15785 2.375C6.76176 2.375 6.33124 2.53451 6.02125 2.87127C5.7285 3.20802 5.53906 3.61567 5.53906 4.04104V33.959C5.53906 34.3666 5.69405 34.8097 6.02125 35.1287C6.34846 35.4655 6.74454 35.625 7.15785 35.625H30.8369C31.233 35.625 31.6636 35.4655 31.9735 35.1287C32.3007 34.792 32.4557 34.3843 32.4557 33.959V11.8041L23.3113 2.375H7.15785Z" fill="#F36060"/>
<path d="M32.6548 11.8024L24.8326 11.8744C24.4218 11.8744 23.9754 11.7137 23.654 11.3744C23.3147 11.0708 23.3753 10.6244 23.3753 10.1958V2.37305L32.6548 11.8024Z" fill="#FFADAD"/>
<path fill-rule="evenodd" clip-rule="evenodd" d="M21.1777 19.2245H22.5085C23.0243 19.2245 23.4416 19.6568 23.4416 20.1903V21.3998C23.4416 21.9342 23.0243 22.3665 22.5085 22.3665H20.0182C20.0182 22.3665 18.5482 27.6606 14.1613 28.484C13.587 28.5921 13.0586 28.1375 13.0586 27.5345V26.3199C13.0586 25.8619 13.3733 25.4707 13.8076 25.3789C14.8144 25.1645 16.6279 24.0717 17.9189 19.2803C19.2692 14.2709 22.305 13.2476 23.9039 13.0683C24.4544 13.0057 24.9336 13.4552 24.9336 14.0282V15.2531C24.9336 15.7145 24.6181 16.1082 24.1812 16.2009C23.333 16.381 21.9725 17.0209 21.1785 19.2245H21.1777Z" fill="white"/>
</svg>
