<svg xmlns="http://www.w3.org/2000/svg" width="21" height="20" fill="none" viewBox="0 0 21 20"><path fill="#474C59" fill-rule="evenodd" d="M12.6593 3.95169C12.3178 3.67143 12.2681 3.16734 12.5483 2.82577C12.8286 2.48421 13.3327 2.43451 13.6742 2.71477L17.6743 5.99682C17.8578 6.14743 17.965 6.3718 17.9668 6.60923C17.9686 6.84666 17.8648 7.07262 17.6836 7.22599L13.6835 10.6106C13.3463 10.896 12.8415 10.8539 12.5561 10.5166C12.2707 10.1794 12.3128 9.67458 12.65 9.38918L14.9222 7.46656H8.7092C6.47709 7.46656 4.63346 9.32786 4.63346 11.6666C4.63346 14.0053 6.47709 15.8666 8.7092 15.8666H15.2808C15.7227 15.8666 16.0808 16.2247 16.0808 16.6666C16.0808 17.1084 15.7227 17.4666 15.2808 17.4666H8.7092C5.55571 17.4666 3.03346 14.8507 3.03346 11.6666C3.03346 8.48241 5.55571 5.86656 8.7092 5.86656H14.9931L12.6593 3.95169Z" clip-rule="evenodd"/></svg>