<svg width="20" height="20" viewBox="0 0 20 20" fill="none" xmlns="http://www.w3.org/2000/svg">
<path d="M14.1594 13.7177L13.1194 11.6377L12.5994 10.5977M5.83936 13.7177L6.87936 11.6377L7.39936 10.5977M7.39936 10.5977L7.91936 9.55771L9.99936 5.39771L12.0794 9.55771L12.5994 10.5977M7.39936 10.5977H12.5994" stroke="#1B1F26" stroke-linecap="round" stroke-linejoin="round"/>
<path d="M6.53353 2.19995H3.06686C2.58822 2.19995 2.2002 2.58797 2.2002 3.06662V6.53328M6.53353 17.8H3.06686C2.58822 17.8 2.2002 17.4119 2.2002 16.9333V13.4666M13.4669 17.8H16.9335C17.4122 17.8 17.8002 17.4119 17.8002 16.9333V13.4666M13.4669 2.19995H16.9335C17.4122 2.19995 17.8002 2.58797 17.8002 3.06662V6.53328" stroke="#1B1F26" stroke-linecap="round" stroke-linejoin="round"/>
</svg>
