<svg width="14" height="15" viewBox="0 0 14 15" fill="none" xmlns="http://www.w3.org/2000/svg">
<path fill-rule="evenodd" clip-rule="evenodd" d="M5.94104 3.78333V2.65833C5.94104 2.43282 5.75822 2.25 5.5327 2.25C5.47288 2.25 5.41379 2.26314 5.35961 2.2885L1.01268 4.32301C0.808429 4.41861 0.720347 4.66169 0.815943 4.86594C0.85647 4.95253 0.926093 5.02215 1.01268 5.06268L5.35961 7.09719C5.56386 7.19279 5.80694 7.1047 5.90253 6.90045C5.92789 6.84627 5.94104 6.78718 5.94104 6.72736V5.38674V5.38333H9.47878C10.8894 5.38333 12.0329 6.52687 12.0329 7.9375C12.0329 9.34813 10.8894 10.4917 9.47878 10.4917H2.62461C2.18279 10.4917 1.82461 10.8498 1.82461 11.2917C1.82461 11.7335 2.18279 12.0917 2.62461 12.0917H9.47878C11.7731 12.0917 13.6329 10.2318 13.6329 7.9375C13.6329 5.64322 11.7731 3.78333 9.47878 3.78333H5.94104Z" fill="#A3BAD9"/>
</svg>
