<svg width="16" height="16" viewBox="0 0 16 16" fill="none" xmlns="http://www.w3.org/2000/svg">
<path fill-rule="evenodd" clip-rule="evenodd" d="M7.9987 3.16602C5.96973 3.16602 4.1853 4.35193 2.95059 5.46066C2.32478 6.02262 1.8198 6.58312 1.47127 7.00284C1.29669 7.21307 1.16057 7.38893 1.06738 7.51328C1.02076 7.57548 0.984822 7.62487 0.960128 7.6593L0.93157 7.6995L0.923734 7.71071L0.921448 7.714L0.920716 7.71506L0.920453 7.71544C0.92035 7.71559 0.920259 7.71572 1.33203 7.99935L0.920259 7.71572C0.802622 7.88651 0.802622 8.11219 0.920259 8.28297L1.33203 7.99935C0.920259 8.28297 0.92035 8.28311 0.920453 8.28326L0.920716 8.28364L0.921448 8.2847L0.923734 8.28799L0.93157 8.2992L0.960128 8.33939C0.984822 8.37383 1.02076 8.42321 1.06738 8.48541C1.16057 8.60977 1.29669 8.78563 1.47127 8.99586C1.8198 9.41558 2.32478 9.97608 2.95059 10.538C4.1853 11.6468 5.96973 12.8327 7.9987 12.8327C10.0277 12.8327 11.8121 11.6468 13.0468 10.538C13.6726 9.97608 14.1776 9.41558 14.5261 8.99586C14.7007 8.78563 14.8368 8.60977 14.93 8.48541C14.9766 8.42321 15.0126 8.37383 15.0373 8.33939L15.0658 8.2992L15.0737 8.28799L15.0759 8.2847L15.0767 8.28364L15.0769 8.28326C15.077 8.28311 15.0771 8.28297 14.6654 7.99935L15.0771 8.28297C15.1948 8.11219 15.1948 7.88651 15.0771 7.71572L14.6654 7.99935C15.0771 7.71572 15.077 7.71559 15.0769 7.71544L15.0767 7.71506L15.0759 7.714L15.0737 7.71071L15.0658 7.6995L15.0373 7.6593C15.0126 7.62487 14.9766 7.57548 14.93 7.51328C14.8368 7.38893 14.7007 7.21307 14.5261 7.00284C14.1776 6.58312 13.6726 6.02262 13.0468 5.46066C11.8121 4.35193 10.0277 3.16602 7.9987 3.16602ZM2.2406 8.35701C2.12636 8.21944 2.03032 8.0983 1.95402 7.99935C2.03032 7.9004 2.12636 7.77926 2.2406 7.64169C2.56676 7.24891 3.0381 6.72608 3.61872 6.20471C4.79686 5.14677 6.34577 4.16602 7.9987 4.16602C9.65163 4.16602 11.2005 5.14677 12.3787 6.20471C12.9593 6.72608 13.4306 7.24891 13.7568 7.64169C13.871 7.77926 13.9671 7.9004 14.0434 7.99935C13.9671 8.09829 13.871 8.21944 13.7568 8.35701C13.4306 8.74979 12.9593 9.27262 12.3787 9.79399C11.2005 10.8519 9.65163 11.8327 7.9987 11.8327C6.34577 11.8327 4.79686 10.8519 3.61872 9.79399C3.0381 9.27262 2.56676 8.74979 2.2406 8.35701ZM7.9987 5.49935C6.61799 5.49935 5.4987 6.61864 5.4987 7.99935C5.4987 9.38006 6.61799 10.4993 7.9987 10.4993C9.37941 10.4993 10.4987 9.38006 10.4987 7.99935C10.4987 6.61864 9.37941 5.49935 7.9987 5.49935ZM6.4987 7.99935C6.4987 7.17092 7.17027 6.49935 7.9987 6.49935C8.82713 6.49935 9.4987 7.17092 9.4987 7.99935C9.4987 8.82778 8.82713 9.49935 7.9987 9.49935C7.17027 9.49935 6.4987 8.82778 6.4987 7.99935Z" fill="#3A8BFF"/>
<path d="M2.33203 2.66602L13.9987 13.666" stroke="#3A8BFF" stroke-linecap="round"/>
</svg>
