<svg width="21" height="20" viewBox="0 0 21 20" fill="none" xmlns="http://www.w3.org/2000/svg">
<path fill-rule="evenodd" clip-rule="evenodd" d="M2.9667 10.0005C2.9667 5.83998 6.33949 2.46719 10.5 2.46719C14.6606 2.46719 18.0334 5.83998 18.0334 10.0005C18.0334 14.1611 14.6606 17.5339 10.5 17.5339C6.33949 17.5339 2.9667 14.1611 2.9667 10.0005ZM10.5 0.867188C5.45583 0.867188 1.3667 4.95632 1.3667 10.0005C1.3667 15.0447 5.45583 19.1339 10.5 19.1339C15.5442 19.1339 19.6334 15.0447 19.6334 10.0005C19.6334 4.95632 15.5442 0.867188 10.5 0.867188ZM7.80595 11.6034C7.54059 11.2501 7.0391 11.1788 6.68583 11.4442C6.33256 11.7096 6.26129 12.211 6.52664 12.5643C7.43141 13.7689 8.8745 14.5505 10.4999 14.5505C12.1251 14.5505 13.5681 13.7691 14.4729 12.5648C14.7383 12.2116 14.667 11.7101 14.3138 11.4447C13.9606 11.1793 13.4591 11.2505 13.1937 11.6037C12.5781 12.4231 11.6007 12.9505 10.4999 12.9505C9.399 12.9505 8.42152 12.4229 7.80595 11.6034ZM7.1667 6.50052C7.71898 6.50052 8.1667 6.94824 8.1667 7.50052V8.33385C8.1667 8.88614 7.71898 9.33385 7.1667 9.33385C6.61441 9.33385 6.1667 8.88614 6.1667 8.33385V7.50052C6.1667 6.94824 6.61441 6.50052 7.1667 6.50052ZM14.875 7.50052C14.875 6.92522 14.4087 6.45885 13.8334 6.45885C13.2581 6.45885 12.7917 6.92522 12.7917 7.50052V8.33385C12.7917 8.90915 13.2581 9.37552 13.8334 9.37552C14.4087 9.37552 14.875 8.90915 14.875 8.33385V7.50052Z" fill="#474C59"/>
</svg>
