<svg width="21" height="20" viewBox="0 0 21 20" fill="none" xmlns="http://www.w3.org/2000/svg">
<path fill-rule="evenodd" clip-rule="evenodd" d="M2.96523 10.0005C2.96523 5.83998 6.33802 2.46719 10.4986 2.46719C14.6591 2.46719 18.0319 5.83998 18.0319 10.0005C18.0319 14.1611 14.6591 17.5339 10.4986 17.5339C6.33802 17.5339 2.96523 14.1611 2.96523 10.0005ZM10.4986 0.867188C5.45437 0.867188 1.36523 4.95632 1.36523 10.0005C1.36523 15.0447 5.45437 19.1339 10.4986 19.1339C15.5428 19.1339 19.6319 15.0447 19.6319 10.0005C19.6319 4.95632 15.5428 0.867188 10.4986 0.867188ZM7.80489 11.6034C7.53954 11.2501 7.03804 11.1788 6.68477 11.4442C6.3315 11.7096 6.26023 12.211 6.52558 12.5643C7.43035 13.7689 8.87344 14.5505 10.4989 14.5505C12.1241 14.5505 13.567 13.7691 14.4718 12.5648C14.7372 12.2116 14.666 11.7101 14.3127 11.4447C13.9595 11.1793 13.458 11.2505 13.1926 11.6037C12.577 12.4231 11.5997 12.9505 10.4989 12.9505C9.39794 12.9505 8.42046 12.4229 7.80489 11.6034ZM7.16523 6.50052C7.71752 6.50052 8.16523 6.94824 8.16523 7.50052V8.33385C8.16523 8.88614 7.71752 9.33385 7.16523 9.33385C6.61295 9.33385 6.16523 8.88614 6.16523 8.33385V7.50052C6.16523 6.94824 6.61295 6.50052 7.16523 6.50052ZM14.8736 7.50052C14.8736 6.92522 14.4072 6.45885 13.8319 6.45885C13.2566 6.45885 12.7902 6.92522 12.7902 7.50052V8.33385C12.7902 8.90915 13.2566 9.37552 13.8319 9.37552C14.4072 9.37552 14.8736 8.90915 14.8736 8.33385V7.50052Z" fill="#3A8BFF"/>
</svg>
