<svg width="18" height="18" viewBox="0 0 18 18" fill="none" xmlns="http://www.w3.org/2000/svg">
<path fill-rule="evenodd" clip-rule="evenodd" d="M3.75 1.5C2.50736 1.5 1.5 2.50736 1.5 3.75V14.25C1.5 15.4926 2.50736 16.5 3.75 16.5H14.25C15.4926 16.5 16.5 15.4926 16.5 14.25V3.75C16.5 2.50736 15.4926 1.5 14.25 1.5H3.75ZM6.37504 7.875C7.20346 7.875 7.87504 7.20343 7.87504 6.375C7.87504 5.54657 7.20346 4.875 6.37504 4.875C5.54661 4.875 4.87504 5.54657 4.87504 6.375C4.87504 7.20343 5.54661 7.875 6.37504 7.875ZM6.42709 10.2115C5.94551 9.94524 5.34201 10.0664 5.00054 10.4979L3.58675 12.2846C3.19766 12.7763 3.54786 13.5 4.17489 13.5H8.74912H9.46843H14.3313C14.9338 13.5 15.2903 12.8255 14.9511 12.3276L12.7468 9.09314C12.3289 8.47985 11.442 8.43219 10.9608 8.99716L8.80594 11.5267L6.42709 10.2115Z" fill="#ACB4BF"/>
</svg>
