<svg width="14" height="14" viewBox="0 0 14 14" fill="none" xmlns="http://www.w3.org/2000/svg">
<path fill-rule="evenodd" clip-rule="evenodd" d="M6.99902 13.4163C10.5429 13.4163 13.4157 10.5435 13.4157 6.99968C13.4157 3.45585 10.5429 0.583008 6.99902 0.583008C3.4552 0.583008 0.582355 3.45585 0.582355 6.99968C0.582355 10.5435 3.4552 13.4163 6.99902 13.4163ZM4.54488 4.54553C4.77268 4.31772 5.14203 4.31772 5.36983 4.54553L6.99884 6.17453L8.62784 4.54553C8.85565 4.31772 9.22499 4.31772 9.4528 4.54553C9.68061 4.77333 9.68061 5.14268 9.4528 5.37049L7.8238 6.99949L9.4528 8.62849C9.68061 8.8563 9.68061 9.22565 9.4528 9.45345C9.22499 9.68126 8.85565 9.68126 8.62784 9.45345L6.99884 7.82445L5.36983 9.45345C5.14203 9.68126 4.77268 9.68126 4.54488 9.45345C4.31707 9.22565 4.31707 8.8563 4.54488 8.62849L6.17388 6.99949L4.54488 5.37049C4.31707 5.14268 4.31707 4.77333 4.54488 4.54553Z" fill="#ACB4BF"/>
</svg>
