<svg width="14" height="14" viewBox="0 0 14 14" fill="none" xmlns="http://www.w3.org/2000/svg">
<path fill-rule="evenodd" clip-rule="evenodd" d="M10.9708 3.92925C11.1986 3.70145 11.1986 3.3321 10.9708 3.1043C10.743 2.87649 10.3737 2.87649 10.1459 3.1043L6.98173 6.26844L3.94932 3.23603C3.72152 3.00822 3.35217 3.00822 3.12437 3.23603C2.89656 3.46384 2.89656 3.83318 3.12437 4.06099L6.15677 7.0934L3.09517 10.155C2.86736 10.3828 2.86736 10.7522 3.09517 10.98C3.32298 11.2078 3.69232 11.2078 3.92013 10.98L6.98173 7.91835L10.1751 11.1117C10.4029 11.3395 10.7722 11.3395 11 11.1117C11.2278 10.8839 11.2278 10.5145 11 10.2867L7.80669 7.0934L10.9708 3.92925Z" fill="#3A8BFF"/>
</svg>
