<svg width="38" height="38" viewBox="0 0 38 38" fill="none" xmlns="http://www.w3.org/2000/svg">
<path d="M6.98634 2.375C6.58443 2.375 6.14757 2.53451 5.83303 2.87127C5.53597 3.20802 5.34375 3.61567 5.34375 4.04104V33.959C5.34375 34.3666 5.50102 34.8097 5.83303 35.1287C6.16505 35.4655 6.56696 35.625 6.98634 35.625H31.0137C31.4156 35.625 31.8524 35.4655 32.167 35.1287C32.499 34.792 32.6562 34.3843 32.6562 33.959V11.8041L23.3773 2.375H6.98634Z" fill="#D77FF6"/>
<path d="M32.6548 11.8024L24.8326 11.8744C24.4218 11.8744 23.9754 11.7137 23.654 11.3744C23.3147 11.0708 23.3753 10.6244 23.3753 10.1958V2.37305L32.6548 11.8024Z" fill="#ECB6FF"/>
<path fill-rule="evenodd" clip-rule="evenodd" d="M19.6208 23.4355C18.6233 23.4355 17.6821 23.007 16.9691 22.2284C16.6948 21.8857 16.7114 21.4285 16.9691 21.1459C17.1076 21.0157 17.2933 20.9381 17.4835 20.9381C17.6692 20.9381 17.8391 21.012 17.962 21.1459C18.4136 21.641 19.026 21.9236 19.6439 21.9236C20.2885 21.9236 20.8538 21.6622 21.3258 21.1459L23.9026 18.3307C24.817 17.3314 24.817 15.7031 23.9026 14.7028C23.451 14.2096 22.8377 13.926 22.2198 13.926C21.5751 13.926 21.009 14.1874 20.5379 14.7028L19.461 15.8804C19.3224 16.0115 19.1368 16.0891 18.9475 16.0891C18.7618 16.0891 18.5919 16.0152 18.4681 15.8804C18.2058 15.5516 18.2021 15.0381 18.4681 14.7471L19.546 13.5695C20.2544 12.7918 21.1955 12.3633 22.1967 12.3633C23.1831 12.3633 24.1502 12.802 24.8475 13.5695C26.3197 15.1304 26.3188 17.8043 24.8475 19.4132L22.2715 22.2284C21.5594 23.007 20.6183 23.4355 19.6208 23.4355Z" fill="white"/>
<path d="M19.6208 23.4355C18.6233 23.4355 17.6821 23.007 16.9691 22.2284C16.6948 21.8857 16.7114 21.4285 16.9691 21.1459C17.1076 21.0157 17.2933 20.9381 17.4835 20.9381C17.6692 20.9381 17.8391 21.012 17.962 21.1459C18.4136 21.641 19.026 21.9236 19.6439 21.9236C20.2885 21.9236 20.8538 21.6622 21.3258 21.1459L23.9026 18.3307C24.817 17.3314 24.817 15.7031 23.9026 14.7028C23.451 14.2096 22.8377 13.926 22.2198 13.926C21.5751 13.926 21.009 14.1874 20.5379 14.7028L19.461 15.8804C19.3224 16.0115 19.1368 16.0891 18.9475 16.0891C18.7618 16.0891 18.5919 16.0152 18.4681 15.8804C18.2058 15.5516 18.2021 15.0381 18.4681 14.7471L19.546 13.5695C20.2544 12.7918 21.1955 12.3633 22.1967 12.3633C23.1831 12.3633 24.1502 12.802 24.8475 13.5695C26.3197 15.1304 26.3188 17.8043 24.8475 19.4132L22.2715 22.2284C21.5594 23.007 20.6183 23.4355 19.6208 23.4355" stroke="white" stroke-width="0.35625"/>
<path fill-rule="evenodd" clip-rule="evenodd" d="M15.045 28.5371C14.0475 28.5371 13.1045 28.1085 12.3924 27.3299C11.6858 26.5624 11.2812 25.4984 11.2812 24.4086C11.2812 23.3196 11.6858 22.2538 12.3914 21.4872L14.9702 18.6711C15.6795 17.8934 16.6216 17.4648 17.6237 17.4648C18.6249 17.4648 19.567 17.8934 20.2754 18.6711C20.5395 19.0008 20.5432 19.5125 20.2763 19.8044C20.1378 19.9355 19.9521 20.0131 19.7618 20.0131C19.5762 20.0131 19.4063 19.9383 19.2825 19.8044C18.8308 19.3111 18.2176 19.0276 17.5997 19.0276C16.9541 19.0276 16.3888 19.289 15.9169 19.8044L13.3391 22.6204C12.4238 23.6207 12.4238 25.2472 13.3391 26.2475C13.7907 26.7425 14.404 27.0251 15.0219 27.0251C15.6666 27.0251 16.2327 26.7638 16.7047 26.2475L17.7825 25.0708C17.91 24.9322 18.0892 24.8556 18.2887 24.8556C18.4716 24.8556 18.6517 24.9202 18.7948 25.0375C19.0396 25.3488 19.0433 25.8614 18.7764 26.1523L17.6985 27.3299C16.9855 28.1085 16.0434 28.5371 15.045 28.5371Z" fill="white"/>
<path d="M15.045 28.5371C14.0475 28.5371 13.1045 28.1085 12.3924 27.3299C11.6858 26.5624 11.2812 25.4984 11.2812 24.4086C11.2812 23.3196 11.6858 22.2538 12.3914 21.4872L14.9702 18.6711C15.6795 17.8934 16.6216 17.4648 17.6237 17.4648C18.6249 17.4648 19.567 17.8934 20.2754 18.6711C20.5395 19.0008 20.5432 19.5125 20.2763 19.8044C20.1378 19.9355 19.9521 20.0131 19.7618 20.0131C19.5762 20.0131 19.4063 19.9383 19.2825 19.8044C18.8308 19.3111 18.2176 19.0276 17.5997 19.0276C16.9541 19.0276 16.3888 19.289 15.9169 19.8044L13.3391 22.6204C12.4238 23.6207 12.4238 25.2472 13.3391 26.2475C13.7907 26.7425 14.404 27.0251 15.0219 27.0251C15.6666 27.0251 16.2327 26.7638 16.7047 26.2475L17.7825 25.0708C17.91 24.9322 18.0892 24.8556 18.2887 24.8556C18.4716 24.8556 18.6517 24.9202 18.7948 25.0375C19.0396 25.3488 19.0433 25.8614 18.7764 26.1523L17.6985 27.3299C16.9855 28.1085 16.0434 28.5371 15.045 28.5371" stroke="white" stroke-width="0.35625"/>
</svg>
