<svg width="18" height="18" viewBox="0 0 18 18" fill="none" xmlns="http://www.w3.org/2000/svg">
<path fill-rule="evenodd" clip-rule="evenodd" d="M7.43993 1.64784C7.33198 1.43625 7.09007 1.32981 6.86115 1.39318C5.60771 1.74015 4.47847 2.38417 3.55375 3.24401C3.39198 3.39442 3.34809 3.63316 3.44577 3.83128C3.56037 4.0637 3.625 4.32556 3.625 4.60393C3.625 5.57042 2.8415 6.35393 1.875 6.35393L1.85056 6.35375C1.62952 6.3506 1.43265 6.49296 1.3664 6.70386C1.12821 7.46215 1 8.26854 1 9.10393C1 9.65531 1.05586 10.1942 1.16239 10.715C1.21371 10.9659 1.44629 11.1374 1.70114 11.1124C1.75814 11.1068 1.81614 11.1039 1.875 11.1039C2.8415 11.1039 3.625 11.8874 3.625 12.8539C3.625 13.2841 3.47047 13.6768 3.21331 13.9816C3.04815 14.1773 3.0576 14.4662 3.23518 14.6507C4.17944 15.6319 5.3725 16.373 6.71375 16.7723C6.97467 16.85 7.24979 16.7047 7.33268 16.4454C7.55841 15.7392 8.22026 15.2289 9 15.2289C9.77974 15.2289 10.4416 15.7392 10.6673 16.4454C10.7502 16.7047 11.0253 16.85 11.2862 16.7723C12.6275 16.373 13.8206 15.6319 14.7648 14.6507C14.9424 14.4662 14.9518 14.1773 14.7867 13.9816C14.5295 13.6768 14.375 13.2841 14.375 12.8539C14.375 11.8874 15.1585 11.1039 16.125 11.1039C16.1839 11.1039 16.2419 11.1068 16.2989 11.1124C16.5537 11.1374 16.7863 10.9659 16.8376 10.715C16.9441 10.1942 17 9.65531 17 9.10393C17 8.26854 16.8718 7.46215 16.6336 6.70387C16.5674 6.49296 16.3705 6.35059 16.1494 6.35375L16.125 6.35393C15.1585 6.35393 14.375 5.57042 14.375 4.60393C14.375 4.32556 14.4396 4.0637 14.5542 3.83128C14.6519 3.63316 14.608 3.39442 14.4462 3.24401C13.5215 2.38417 12.3923 1.74015 11.1389 1.39318C10.9099 1.32981 10.668 1.43625 10.5601 1.64784C10.27 2.21637 9.67983 2.60393 9 2.60393C8.32017 2.60393 7.72997 2.21637 7.43993 1.64784ZM4.625 4.60393C4.625 4.30648 4.57761 4.01944 4.48982 3.75037C5.15606 3.18845 5.92826 2.74891 6.77183 2.46588C7.27106 3.15479 8.08277 3.60393 9 3.60393C9.91723 3.60393 10.7289 3.15478 11.2282 2.46588C12.0717 2.74891 12.8439 3.18846 13.5102 3.75038C13.4224 4.01945 13.375 4.30648 13.375 4.60393C13.375 6.00374 14.4209 7.15927 15.7738 7.33172C15.9214 7.89728 16 8.4911 16 9.10393C16 9.44609 15.9755 9.78227 15.9282 10.1109C14.5013 10.2118 13.375 11.4013 13.375 12.8539C13.375 13.3607 13.5124 13.8361 13.7518 14.244C13.0825 14.8632 12.2923 15.3529 11.4212 15.6741C10.9566 14.8139 10.0471 14.2289 9 14.2289C7.95289 14.2289 7.04338 14.8139 6.57885 15.6741C5.70766 15.3529 4.91753 14.8632 4.24819 14.244C4.48757 13.8361 4.625 13.3607 4.625 12.8539C4.625 11.4013 3.49874 10.2118 2.07182 10.1109C2.02451 9.78227 2 9.44609 2 9.10393C2 8.49109 2.07864 7.89728 2.22616 7.33172C3.57912 7.15927 4.625 6.00374 4.625 4.60393ZM9 5.87506C7.27411 5.87506 5.875 7.27417 5.875 9.00006C5.875 10.726 7.27411 12.1251 9 12.1251C10.7259 12.1251 12.125 10.726 12.125 9.00006C12.125 7.27417 10.7259 5.87506 9 5.87506ZM6.875 9.00006C6.875 7.82645 7.82639 6.87506 9 6.87506C10.1736 6.87506 11.125 7.82645 11.125 9.00006C11.125 10.1737 10.1736 11.1251 9 11.1251C7.82639 11.1251 6.875 10.1737 6.875 9.00006Z" fill="#3A8BFF"/>
</svg>
