<svg width="21" height="20" viewBox="0 0 21 20" fill="none" xmlns="http://www.w3.org/2000/svg">
<path fill-rule="evenodd" clip-rule="evenodd" d="M11.5993 0.169627C11.9475 0.441643 12.0092 0.9444 11.7372 1.29256L10.8284 2.4558C14.9733 1.7692 18.983 4.43131 19.9172 8.58219C20.0142 9.01323 19.7434 9.44131 19.3124 9.53832C18.8814 9.63533 18.4533 9.36454 18.3563 8.9335C17.6003 5.57451 14.3257 3.4347 10.9693 4.05547L11.8852 4.7711C12.2334 5.04312 12.2951 5.54587 12.0231 5.89404C11.7511 6.2422 11.2483 6.30393 10.9002 6.03192L8.49024 4.14907C8.14207 3.87706 8.08034 3.3743 8.35236 3.02613L10.4764 0.307506C10.7484 -0.0406587 11.2512 -0.102389 11.5993 0.169627ZM1.7002 8C1.7002 7.55817 2.05837 7.2 2.5002 7.2H15.5002C15.942 7.2 16.3002 7.55817 16.3002 8V18C16.3002 18.4418 15.942 18.8 15.5002 18.8H2.5002C2.05837 18.8 1.7002 18.4418 1.7002 18V8ZM3.3002 8.8V17.2H14.7002V8.8H3.3002Z" fill="#474C59"/>
</svg>
