<svg width="38" height="38" viewBox="0 0 38 38" fill="none" xmlns="http://www.w3.org/2000/svg">
<path d="M7.15781 2.37695C6.76173 2.37695 6.33121 2.53647 6.02124 2.87322C5.72849 3.20998 5.53906 3.61762 5.53906 4.043V33.9609C5.53906 34.3686 5.69405 34.8117 6.02124 35.1307C6.34843 35.4674 6.74451 35.627 7.15781 35.627H30.8362C31.2323 35.627 31.6628 35.4674 31.9728 35.1307C32.3 34.7939 32.455 34.3863 32.455 33.9609V11.8061L23.3108 2.37695H7.15781Z" fill="#FFD244"/>
<path d="M32.4575 11.8044L24.7488 11.8763C24.3441 11.8763 23.9041 11.7156 23.5874 11.3763C23.253 11.0728 23.3127 10.6263 23.3127 10.1978V2.375L32.4575 11.8044Z" fill="#FFEEBA"/>
<path d="M11.8854 16.9352C12.9684 16.9352 13.8234 17.32 14.4504 18.0895C15.0204 18.802 15.3054 19.714 15.3054 20.854C15.3054 21.937 15.0204 22.8347 14.4646 23.5472C13.8661 24.3167 13.0254 24.7015 11.9709 24.7015C11.1159 24.7015 10.3749 24.2882 9.77638 23.4902V27.3235H8.15188V17.1347H9.66238V17.9185C10.1754 17.263 10.9164 16.9352 11.8854 16.9352ZM11.6431 18.2462C11.0019 18.2462 10.5174 18.4885 10.1754 19.0015C9.86188 19.4432 9.71938 20.0275 9.71938 20.7685V20.8825C9.71938 21.652 9.90463 22.279 10.2894 22.7492C10.6314 23.1767 11.0589 23.3905 11.5861 23.3905C12.2986 23.3905 12.8401 23.1482 13.1821 22.6922C13.4814 22.2647 13.6381 21.652 13.6381 20.854C13.6381 20.056 13.4956 19.4432 13.2249 19.0157C12.8829 18.5027 12.3556 18.2462 11.6431 18.2462Z" fill="white"/>
<path d="M24.1823 17.1347H30.3098V18.175L26.1773 23.1767H30.5378V24.502H24.0398V23.4047L28.1153 18.46H24.1823V17.1347Z" fill="white"/>
<path d="M21.5873 14.128H23.2118V24.502H21.7013V23.7182C21.1883 24.3737 20.4473 24.7015 19.4783 24.7015C18.381 24.7015 17.526 24.3167 16.9133 23.5472C16.3433 22.8347 16.0583 21.9085 16.0583 20.7827C16.0583 19.6997 16.329 18.802 16.899 18.0895C17.4975 17.32 18.3383 16.9352 19.3928 16.9352C20.2478 16.9352 20.9745 17.3342 21.5873 18.1465V14.128ZM19.7775 18.2462C19.0365 18.2462 18.5093 18.4885 18.1673 18.973C17.868 19.3862 17.7255 19.9847 17.7255 20.7827C17.7255 21.5807 17.8538 22.1935 18.1388 22.621C18.4665 23.134 18.9938 23.3905 19.7205 23.3905C20.3475 23.3905 20.8463 23.134 21.1883 22.6352C21.4875 22.1792 21.6443 21.5807 21.6443 20.8682V20.7542C21.6443 19.9705 21.4448 19.3435 21.0743 18.8875C20.7323 18.46 20.2905 18.2462 19.7775 18.2462Z" fill="white"/>
</svg>
