<svg width="20" height="20" viewBox="0 0 20 20" fill="none" xmlns="http://www.w3.org/2000/svg">
<path d="M9.5 18.3C9.5 18.5762 9.72386 18.8 10 18.8C10.2761 18.8 10.5 18.5762 10.5 18.3H9.5ZM12.3568 4.30379L12.0246 3.93012L12.0246 3.93012L12.3568 4.30379ZM12.0453 4.58079L11.7131 4.20712C11.5855 4.32052 11.5246 4.49114 11.5515 4.65967L12.0453 4.58079ZM13.2732 3.01817L13.7348 3.21048V3.21048L13.2732 3.01817ZM13.7022 1.98851L14.1638 2.18081V2.18081L13.7022 1.98851ZM6.29813 1.98851L5.83659 2.18081L5.83659 2.18081L6.29813 1.98851ZM6.72716 3.01817L6.26562 3.21048V3.21048L6.72716 3.01817ZM7.64353 4.30379L7.97574 3.93012L7.64353 4.30379ZM7.95509 4.58079L8.44883 4.65967C8.47575 4.49114 8.41486 4.32051 8.28731 4.20712L7.95509 4.58079ZM7.19697 7.42657L6.96043 6.98606H6.96043L7.19697 7.42657ZM7.52891 7.24832L7.76546 7.68883C7.90291 7.61502 7.99804 7.48127 8.02265 7.32721L7.52891 7.24832ZM4.48862 10.4679L4.95352 10.6519L4.48862 10.4679ZM3.49249 12.9844L3.9574 13.1685H3.9574L3.49249 12.9844ZM16.5079 12.9844L16.9728 12.8004L16.9728 12.8004L16.5079 12.9844ZM15.5118 10.4679L15.9767 10.2839L15.5118 10.4679ZM12.8034 7.42657L12.5669 7.86708L12.5669 7.86708L12.8034 7.42657ZM12.4715 7.24832L11.9777 7.32721C12.0023 7.48127 12.0975 7.61502 12.2349 7.68883L12.4715 7.24832ZM10.5 18.3V13.0032H9.5V18.3H10.5ZM12.0246 3.93012L11.7131 4.20712L12.3775 4.95446L12.6891 4.67746L12.0246 3.93012ZM12.8117 2.82587C12.6317 3.25791 12.36 3.63193 12.0246 3.93012L12.6891 4.67746C13.1347 4.28125 13.4958 3.78395 13.7348 3.21048L12.8117 2.82587ZM13.2407 1.7962L12.8117 2.82587L13.7348 3.21048L14.1638 2.18081L13.2407 1.7962ZM13.5766 2.30005C13.3169 2.30005 13.1408 2.03588 13.2407 1.7962L14.1638 2.18081C14.3384 1.76183 14.0305 1.30005 13.5766 1.30005V2.30005ZM6.42377 2.30005H13.5766V1.30005H6.42377V2.30005ZM6.75967 1.7962C6.85954 2.03589 6.68343 2.30005 6.42377 2.30005V1.30005C5.96985 1.30005 5.66201 1.76182 5.83659 2.18081L6.75967 1.7962ZM7.1887 2.82587L6.75967 1.7962L5.83659 2.18081L6.26562 3.21048L7.1887 2.82587ZM7.97574 3.93012C7.64035 3.63193 7.36872 3.25791 7.1887 2.82587L6.26562 3.21048C6.50457 3.78395 6.86565 4.28124 7.31131 4.67746L7.97574 3.93012ZM8.28731 4.20712L7.97574 3.93012L7.31131 4.67746L7.62287 4.95446L8.28731 4.20712ZM7.43351 7.86708L7.76546 7.68883L7.29237 6.80782L6.96043 6.98606L7.43351 7.86708ZM4.95352 10.6519C5.43579 9.43359 6.32684 8.46134 7.43351 7.86708L6.96043 6.98606C5.65056 7.68943 4.59488 8.84094 4.02372 10.2839L4.95352 10.6519ZM3.9574 13.1685L4.95352 10.6519L4.02372 10.2839L3.02759 12.8004L3.9574 13.1685ZM3.7772 12.9033C3.91401 12.9033 4.00775 13.0413 3.9574 13.1685L3.02759 12.8004C2.81813 13.3296 3.20808 13.9033 3.7772 13.9033V12.9033ZM16.2232 12.9033H3.7772V13.9033H16.2232V12.9033ZM16.043 13.1685C15.9926 13.0413 16.0864 12.9033 16.2232 12.9033V13.9033C16.7923 13.9033 17.1822 13.3296 16.9728 12.8004L16.043 13.1685ZM15.0469 10.6519L16.043 13.1685L16.9728 12.8004L15.9767 10.2839L15.0469 10.6519ZM12.5669 7.86708C13.6735 8.46134 14.5646 9.43359 15.0469 10.6519L15.9767 10.2839C15.4055 8.84094 14.3498 7.68943 13.0399 6.98606L12.5669 7.86708ZM12.2349 7.68883L12.5669 7.86708L13.0399 6.98606L12.708 6.80782L12.2349 7.68883ZM8.02265 7.32721L8.44883 4.65967L7.46135 4.50191L7.03518 7.16944L8.02265 7.32721ZM11.5515 4.65967L11.9777 7.32721L12.9652 7.16944L12.539 4.50191L11.5515 4.65967Z" fill="#3488FF"/>
</svg>
