<svg width="38" height="38" viewBox="0 0 38 38" fill="none" xmlns="http://www.w3.org/2000/svg">
<path d="M7.15785 2.375C6.76176 2.375 6.33124 2.53451 6.02125 2.87127C5.7285 3.20802 5.53906 3.61567 5.53906 4.04104V33.959C5.53906 34.3666 5.69405 34.8097 6.02125 35.1287C6.34846 35.4655 6.74454 35.625 7.15785 35.625H30.8369C31.233 35.625 31.6636 35.4655 31.9735 35.1287C32.3007 34.792 32.4557 34.3843 32.4557 33.959V11.8041L23.3113 2.375H7.15785Z" fill="#F27C61"/>
<path d="M14.6758 13.6875V26.123H16.7135V21.3508H19.7963C22.8268 21.3508 24.342 20.062 24.342 17.5018C24.342 14.9589 22.8268 13.6875 19.8311 13.6875H14.6758ZM16.7135 15.4292H19.6744C20.5626 15.4292 21.2244 15.5859 21.6424 15.9168C22.0604 16.2303 22.2869 16.7528 22.2869 17.5018C22.2869 18.2507 22.0779 18.7906 21.6599 19.1215C21.2419 19.435 20.58 19.6092 19.6744 19.6092H16.7135V15.4292Z" fill="white"/>
<path d="M32.4577 11.8024L24.7489 11.8744C24.3441 11.8744 23.9041 11.7137 23.5874 11.3744C23.253 11.0708 23.3127 10.6244 23.3127 10.1958V2.37305L32.4577 11.8024Z" fill="#F7B8AA"/>
</svg>
