<svg width="20" height="20" viewBox="0 0 20 20" fill="none" xmlns="http://www.w3.org/2000/svg">
<path fill-rule="evenodd" clip-rule="evenodd" d="M2.8832 9.16678C2.8832 5.69659 5.69635 2.88345 9.16654 2.88345C12.6367 2.88345 15.4499 5.69659 15.4499 9.16678C15.4499 12.637 12.6367 15.4501 9.16654 15.4501C5.69635 15.4501 2.8832 12.637 2.8832 9.16678ZM9.16654 1.28345C4.81269 1.28345 1.2832 4.81294 1.2832 9.16678C1.2832 13.5206 4.81269 17.0501 9.16654 17.0501C11.1616 17.0501 12.9836 16.309 14.3722 15.0871L17.6751 18.39C17.9875 18.7025 18.4941 18.7025 18.8065 18.39C19.1189 18.0776 19.1189 17.5711 18.8065 17.2587L15.4612 13.9134C16.4585 12.593 17.0499 10.949 17.0499 9.16678C17.0499 4.81294 13.5204 1.28345 9.16654 1.28345ZM5.41654 9.20011C5.41654 8.75829 5.77471 8.40011 6.21654 8.40011H8.39987V6.21678C8.39987 5.77495 8.75804 5.41678 9.19987 5.41678C9.6417 5.41678 9.99987 5.77495 9.99987 6.21678V8.40011H12.1165C12.5584 8.40011 12.9165 8.75829 12.9165 9.20011C12.9165 9.64194 12.5584 10.0001 12.1165 10.0001H9.99987V12.1168C9.99987 12.5586 9.6417 12.9168 9.19987 12.9168C8.75804 12.9168 8.39987 12.5586 8.39987 12.1168V10.0001H6.21654C5.77471 10.0001 5.41654 9.64194 5.41654 9.20011Z" fill="white"/>
</svg>
