<svg width="18" height="18" viewBox="0 0 18 18" fill="none" xmlns="http://www.w3.org/2000/svg">
<path d="M16.2405 14.9997L14.1041 12.8645C15.035 11.6701 15.5955 10.1737 15.5955 8.54578C15.5955 4.66053 12.4337 1.5 8.54774 1.5C4.66142 1.5 1.5 4.66053 1.5 8.54578C1.5 12.4307 4.66142 15.5916 8.54774 15.5916C10.1738 15.5916 11.6689 15.0329 12.8623 14.1042L14.9991 16.2404C15.3441 16.585 15.9016 16.5867 16.2442 16.2445C16.5869 15.9016 16.5849 15.345 16.2405 14.9997V14.9997Z" fill="#A3BAD9"/>
<ellipse cx="8.54719" cy="8.54941" rx="5.64826" ry="5.64669" fill="white"/>
<path d="M10.9226 7.87473C8.32799 7.87473 9.17046 7.87473 6.17272 7.87473C5.8163 7.87473 5.52734 8.17535 5.52734 8.54609C5.52734 8.91682 5.81597 9.21712 6.17272 9.21712C9.28529 9.21712 8.23539 9.2171 10.9226 9.2171C11.279 9.2171 11.5683 8.91681 11.5683 8.54607C11.5683 8.17533 11.279 7.87473 10.9226 7.87473Z" fill="#A3BAD9"/>
</svg>
