<svg xmlns="http://www.w3.org/2000/svg" width="24" height="24" fill="none" viewBox="0 0 24 24"><path fill="#8A8B99" fill-rule="evenodd" d="M17.3359 5.66667C17.3359 5.29848 17.0375 5 16.6693 5C16.3011 5 16.0026 5.29848 16.0026 5.66667V6.99963C14.8887 6.16304 13.5035 5.66667 12.0026 5.66667C8.32071 5.66667 5.33594 8.65143 5.33594 12.3333C5.33594 16.0152 8.32071 19 12.0026 19C15.6845 19 18.6693 16.0152 18.6693 12.3333C18.6693 11.9651 18.3708 11.6667 18.0026 11.6667C17.6344 11.6667 17.3359 11.9651 17.3359 12.3333C17.3359 15.2789 14.9481 17.6667 12.0026 17.6667C9.05709 17.6667 6.66927 15.2789 6.66927 12.3333C6.66927 9.38781 9.05709 7 12.0026 7C13.3551 7 14.5898 7.50293 15.5304 8.33333H13.3359C12.9677 8.33333 12.6693 8.63181 12.6693 9C12.6693 9.36819 12.9677 9.66667 13.3359 9.66667H16.6693C17.0375 9.66667 17.3359 9.36819 17.3359 9V8.5668C17.336 8.56318 17.336 8.55956 17.3359 8.55594V5.66667Z" clip-rule="evenodd"/></svg>