<svg width="38" height="38" viewBox="0 0 38 38" fill="none" xmlns="http://www.w3.org/2000/svg">
<path d="M2.375 7.125C2.375 5.81332 3.43832 4.75 4.75 4.75H14.25C16.8734 4.75 19 6.87665 19 9.5V11.0833H2.375V7.125Z" fill="#74C0F1"/>
<path d="M2.375 9.5H33.25C34.5617 9.5 35.625 10.5633 35.625 11.875V30.875C35.625 32.1867 34.5617 33.25 33.25 33.25H4.75C3.43832 33.25 2.375 32.1867 2.375 30.875V9.5Z" fill="#85CDFD"/>
<path fill-rule="evenodd" clip-rule="evenodd" d="M25.8152 17.0852C25.823 15.6895 24.6854 14.5508 23.2716 14.5392C22.5876 14.5335 21.9297 14.7978 21.444 15.2733C20.9584 15.7488 20.6852 16.396 20.6852 17.0713C20.6852 17.2124 20.6969 17.3509 20.7195 17.4858L16.5689 19.5345C16.1023 19.0562 15.447 18.7587 14.7213 18.7587C13.3046 18.7587 12.1562 19.8924 12.1562 21.2908C12.1562 22.6893 13.3046 23.8229 14.7213 23.8229C15.4192 23.8229 16.0521 23.5477 16.5145 23.1012L19.9106 24.9637C19.8711 25.1403 19.8503 25.3237 19.8503 25.512C19.8503 26.9105 20.9987 28.0441 22.4153 28.0441C23.8319 28.0441 24.9803 26.9105 24.9803 25.512C24.9803 24.1136 23.8319 22.9799 22.4153 22.9799C21.7292 22.9799 21.1061 23.2458 20.6458 23.6789L17.2329 21.8071C17.2679 21.6404 17.2862 21.4678 17.2862 21.2908C17.2862 21.1526 17.275 21.0169 17.2534 20.8847L21.4086 18.8337C21.8732 19.3067 22.5232 19.6013 23.2432 19.6033C24.657 19.6071 25.8073 18.4809 25.8152 17.0852Z" fill="#4C9ED9"/>
</svg>
