<svg width="20" height="20" viewBox="0 0 20 20" fill="none" xmlns="http://www.w3.org/2000/svg">
<path fill-rule="evenodd" clip-rule="evenodd" d="M10.0007 19.1668C4.93804 19.1668 0.833984 15.0628 0.833984 10.0002C0.833984 4.93755 4.93804 0.833496 10.0007 0.833496C15.0633 0.833496 19.1673 4.93755 19.1673 10.0002C19.1673 15.0628 15.0633 19.1668 10.0007 19.1668ZM14.7542 8.17302C15.1258 7.73385 15.071 7.07658 14.6318 6.70497C14.1927 6.33336 13.5354 6.38813 13.1638 6.82731L9.28508 11.4112L7.16779 9.44517C6.74621 9.05371 6.08712 9.07812 5.69566 9.49969C5.3042 9.92127 5.32861 10.5804 5.75018 10.9718L8.66685 13.6802C8.8754 13.8738 9.15411 13.9737 9.4382 13.9566C9.72228 13.9395 9.98701 13.8069 10.1708 13.5897L14.7542 8.17302Z" fill="#52CC5C"/>
</svg>
