<svg width="38" height="38" viewBox="0 0 38 38" fill="none" xmlns="http://www.w3.org/2000/svg">
<path d="M7.15785 2.375C6.76176 2.375 6.33124 2.53451 6.02125 2.87127C5.7285 3.20802 5.53906 3.61567 5.53906 4.04104V33.959C5.53906 34.3666 5.69405 34.8097 6.02125 35.1287C6.34846 35.4655 6.74454 35.625 7.15785 35.625H30.8369C31.233 35.625 31.6636 35.4655 31.9735 35.1287C32.3007 34.792 32.4557 34.3843 32.4557 33.959V11.8041L23.3113 2.375H7.15785Z" fill="#87CD86"/>
<path d="M17.4212 13.941V16.7174H19.3331V18.2801H17.4212V23.1346C17.4212 23.3341 17.4545 23.4837 17.5542 23.6001C17.654 23.6999 17.787 23.7497 17.9865 23.7497H19.117V25.3125H17.6706C16.9225 25.3125 16.3738 25.113 16.0247 24.714C15.6922 24.3482 15.526 23.8329 15.526 23.1346V18.2801H13.9798V16.7174H15.526V14.7224L17.4212 13.941Z" fill="white"/>
<path d="M21.8597 13.2095C22.2254 13.2095 22.5413 13.3259 22.7907 13.5586C23.0234 13.7914 23.1564 14.0906 23.1564 14.4564C23.1564 14.8221 23.0234 15.138 22.774 15.3707C22.5247 15.6035 22.2254 15.7199 21.8597 15.7199C21.4939 15.7199 21.1947 15.6035 20.9453 15.3707C20.6959 15.1214 20.5795 14.8221 20.5795 14.4564C20.5795 14.0906 20.6959 13.7914 20.9453 13.5586C21.1947 13.3259 21.4939 13.2095 21.8597 13.2095ZM20.912 16.7174H22.8073V25.3125H20.912V16.7174Z" fill="white"/>
<path d="M32.4577 11.8024L24.7489 11.8744C24.3441 11.8744 23.9041 11.7137 23.5874 11.3744C23.253 11.0708 23.3127 10.6244 23.3127 10.1958V2.37305L32.4577 11.8024Z" fill="#C1E5C3"/>
</svg>
