<svg width="16" height="16" viewBox="0 0 16 16" fill="none" xmlns="http://www.w3.org/2000/svg">
<path fill-rule="evenodd" clip-rule="evenodd" d="M8.00008 15.3333C12.0502 15.3333 15.3334 12.0501 15.3334 8.00001C15.3334 3.94992 12.0502 0.666672 8.00008 0.666672C3.94999 0.666672 0.666748 3.94992 0.666748 8.00001C0.666748 12.0501 3.94999 15.3333 8.00008 15.3333ZM8.47147 6.969C8.6267 6.81614 8.71718 6.7258 8.75685 6.67372L8.75964 6.67006L8.76253 6.6665C8.91535 6.47844 8.9784 6.30173 8.9784 6.12154C8.9784 5.81455 8.88685 5.60913 8.74683 5.47127L8.74461 5.46909L8.74243 5.46686C8.59991 5.32044 8.37831 5.23218 8.0329 5.23218C7.62937 5.23218 7.38258 5.35543 7.2271 5.5659L7.22385 5.57029L7.22044 5.57457C7.11177 5.71073 7.03402 5.89005 6.99767 6.12877C6.94953 6.44488 6.68853 6.74686 6.31142 6.74686C5.9568 6.74686 5.62303 6.45129 5.67134 6.04928C5.735 5.51961 5.93151 5.06419 6.28153 4.70124C6.72399 4.2236 7.33402 4 8.07042 4C8.72385 4 9.27915 4.17229 9.71189 4.56544C10.1301 4.94398 10.3333 5.46231 10.3333 6.08459C10.3333 6.56176 10.1918 6.98543 9.91609 7.34377L9.91193 7.34918L9.90752 7.35438C9.79687 7.48511 9.52606 7.73974 9.11666 8.09699L9.11382 8.09947C8.9267 8.25857 8.81109 8.39912 8.73823 8.52824L8.7363 8.53166L8.73428 8.53503C8.64253 8.68788 8.59779 8.85635 8.59779 9.05855C8.59779 9.33759 8.37157 9.56381 8.09253 9.56381H7.76687C7.48783 9.56381 7.26161 9.33759 7.26161 9.05855C7.26161 8.7181 7.32451 8.40542 7.4594 8.12812C7.61821 7.79413 7.96616 7.41186 8.47147 6.969ZM8.77789 11.3111C8.77789 11.7407 8.42966 12.0889 8.00011 12.0889C7.57055 12.0889 7.22233 11.7407 7.22233 11.3111C7.22233 10.8816 7.57055 10.5333 8.00011 10.5333C8.42966 10.5333 8.77789 10.8816 8.77789 11.3111Z" fill="#ACB4BF"/>
</svg>
