<svg width="16" height="17" viewBox="0 0 16 17" fill="none" xmlns="http://www.w3.org/2000/svg">
<path fill-rule="evenodd" clip-rule="evenodd" d="M8.00008 15.8333C12.0502 15.8333 15.3334 12.5501 15.3334 8.50001C15.3334 4.44992 12.0502 1.16667 8.00008 1.16667C3.94999 1.16667 0.666748 4.44992 0.666748 8.50001C0.666748 12.5501 3.94999 15.8333 8.00008 15.8333ZM8.47147 7.469C8.6267 7.31614 8.71718 7.2258 8.75685 7.17372L8.75964 7.17006L8.76253 7.1665C8.91535 6.97844 8.9784 6.80173 8.9784 6.62154C8.9784 6.31455 8.88685 6.10913 8.74683 5.97127L8.74461 5.96909L8.74243 5.96686C8.59991 5.82044 8.37831 5.73218 8.0329 5.73218C7.62937 5.73218 7.38258 5.85543 7.2271 6.0659L7.22385 6.07029L7.22044 6.07457C7.11177 6.21073 7.03402 6.39005 6.99767 6.62877C6.94953 6.94488 6.68853 7.24686 6.31142 7.24686C5.9568 7.24686 5.62303 6.95129 5.67134 6.54928C5.735 6.01961 5.93151 5.56419 6.28153 5.20124C6.72399 4.7236 7.33402 4.5 8.07042 4.5C8.72385 4.5 9.27915 4.67229 9.71189 5.06544C10.1301 5.44398 10.3333 5.96231 10.3333 6.58459C10.3333 7.06176 10.1918 7.48543 9.91609 7.84377L9.91193 7.84918L9.90752 7.85438C9.79687 7.98511 9.52606 8.23974 9.11666 8.59699L9.11382 8.59947C8.9267 8.75857 8.81109 8.89912 8.73823 9.02824L8.7363 9.03166L8.73428 9.03503C8.64253 9.18788 8.59779 9.35635 8.59779 9.55855C8.59779 9.83759 8.37157 10.0638 8.09253 10.0638H7.76687C7.48783 10.0638 7.26161 9.83759 7.26161 9.55855C7.26161 9.2181 7.32451 8.90542 7.4594 8.62812C7.61821 8.29413 7.96616 7.91186 8.47147 7.469ZM8.77789 11.8111C8.77789 12.2407 8.42966 12.5889 8.00011 12.5889C7.57055 12.5889 7.22233 12.2407 7.22233 11.8111C7.22233 11.3816 7.57055 11.0333 8.00011 11.0333C8.42966 11.0333 8.77789 11.3816 8.77789 11.8111Z" fill="#3A8BFF"/>
</svg>
