<svg width="14" height="14" viewBox="0 0 14 14" fill="none" xmlns="http://www.w3.org/2000/svg">
<path fill-rule="evenodd" clip-rule="evenodd" d="M8.41916 2.06691L7.94143 2.49164L8.04228 3.12287L8.27302 4.56712L8.36416 5.13761L8.87314 5.41092C9.68097 5.8447 10.3312 6.55426 10.6831 7.44338L11.258 8.89583H2.74192L3.31684 7.44338C3.66879 6.55426 4.31899 5.84471 5.12682 5.41092L5.6358 5.13761L5.72694 4.56712L5.95768 3.12287L6.05853 2.49164L5.5808 2.06691C5.34571 1.85791 5.15535 1.59581 5.02912 1.29287L4.97654 1.16667H9.02341L8.97083 1.29287C8.8446 1.59581 8.65425 1.85791 8.41916 2.06691ZM10.0478 1.74159C9.85277 2.20954 9.55805 2.61545 9.19433 2.93882L9.42507 4.38307C10.4699 4.94413 11.3122 5.8628 11.7679 7.01399L12.5316 8.94332C12.7441 9.48029 12.3484 10.0625 11.7709 10.0625H7.58305V14.0003H6.41638V10.0625H2.22903C1.65153 10.0625 1.25583 9.48029 1.46838 8.94332L2.23207 7.01399C2.68775 5.8628 3.53004 4.94413 4.57488 4.38307L4.80562 2.93882C4.4419 2.61545 4.14718 2.20954 3.9522 1.74159L3.62328 0.952176C3.43454 0.499208 3.76735 0 4.25806 0H9.74189C10.2326 0 10.5654 0.499208 10.3767 0.952176L10.0478 1.74159Z" fill="#8A8B99"/>
</svg>
