<svg width="20" height="20" viewBox="0 0 20 20" fill="none" xmlns="http://www.w3.org/2000/svg">
<path fill-rule="evenodd" clip-rule="evenodd" d="M6.25065 2.5C6.25065 2.22386 6.02679 2 5.75065 2C5.47451 2 5.25065 2.22386 5.25065 2.5V3.66667H2.62565C2.11939 3.66667 1.70898 4.07707 1.70898 4.58333V8.33333C1.70898 8.83959 2.11939 9.25 2.62565 9.25H5.25065V11.25C5.25065 11.5261 5.47451 11.75 5.75065 11.75C6.02679 11.75 6.25065 11.5261 6.25065 11.25V9.25H8.87565C9.38191 9.25 9.79231 8.83959 9.79231 8.33333V4.58333C9.79231 4.07707 9.38191 3.66667 8.87565 3.66667H6.25065V2.5ZM5.25065 4.66667H2.70898V8.25H5.25065L5.25065 4.66667ZM6.25065 8.25L6.25065 4.66667H8.79232V8.25H6.25065ZM16.3164 15.2917L17.3705 17.8959C17.4741 18.1519 17.7656 18.2754 18.0216 18.1718C18.2775 18.0682 18.4011 17.7767 18.2975 17.5207L15.142 9.72494C14.8329 8.96129 13.7517 8.9613 13.4426 9.72495L10.2872 17.5207C10.1836 17.7767 10.3071 18.0682 10.5631 18.1718C10.819 18.2754 11.1105 18.1519 11.2141 17.8959L12.2682 15.2917H16.3164ZM15.9116 14.2917L14.2923 10.291L12.673 14.2917H15.9116ZM3.04232 13.25C3.31846 13.25 3.54232 13.4739 3.54232 13.75V16.9167C3.54232 17.1928 3.76618 17.4167 4.04232 17.4167H4.0485H4.05469H4.06087H4.06706H4.07324H4.07943H4.08561H4.0918H4.09798H4.10417H4.11035H4.11654H4.12272H4.12891H4.13509H4.14128H4.14746H4.15365H4.15983H4.16602H4.1722H4.17838H4.18457H4.19075H4.19694H4.20312H4.20931H4.21549H4.22168H4.22786H4.23405H4.24023H4.24642H4.2526H4.25879H4.26497H4.27116H4.27734H4.28353H4.28971H4.2959H4.30208H4.30827H4.31445H4.32064H4.32682H4.33301H4.33919H4.34538H4.35156H4.35775H4.36393H4.37012H4.3763H4.38249H4.38867H4.39486H4.40104H4.40723H4.41341H4.4196H4.42578H4.43197H4.43815H4.44434H4.45052H4.45671H4.46289H4.46907H4.47526H4.48144H4.48763H4.49381H4.5H4.50618H4.51237H4.51855H4.52474H4.53092H4.53711H4.54329H4.54948H4.55566H4.56185H4.56803H4.57422H4.5804H4.58659H4.59277H4.59896H4.60514H4.61133H4.61751H4.6237H4.62988H4.63607H4.64225H4.64844H4.65462H4.66081H4.66699H4.67318H4.67936H4.68555H4.69173H4.69792H4.7041H4.71029H4.71647H4.72266H4.72884H4.73503H4.74121H4.7474H4.75358H4.75976H4.76595H4.77213H4.77832H4.7845H4.79069H4.79687H4.80306H4.80924H4.81543H4.82161H4.8278H4.83398H4.84017H4.84635H4.85254H4.85872H4.86491H4.87109H4.87728H4.88346H4.88965H4.89583H4.90202H4.9082H4.91439H4.92057H4.92676H4.93294H4.93913H4.94531H4.9515H4.95768H4.96387H4.97005H4.97624H4.98242H4.98861H4.99479H5.00098H5.00716H5.01335H5.01953H5.02572H5.0319H5.03808H5.04427H5.05045H5.05664H5.06282H5.06901H5.07519H5.08138H5.08756H5.09375H5.09993H5.10612H5.1123H5.11849H5.12467H5.13086H5.13704H5.14323H5.14941H5.1556H5.16178H5.16797H5.17415H5.18034H5.18652H5.19271H5.19889H5.20508H5.21126H5.21745H5.22363H5.22982H5.236H5.24219H5.24837H5.25456H5.26074H5.26693H5.27311H5.2793H5.28548H5.29167H5.29785H5.30404H5.31022H5.31641H5.32259H5.32877H5.33496H5.34114H5.34733H5.35351H5.3597H5.36588H5.37207H5.37825H5.38444H5.39062H5.39681H5.40299H5.40918H5.41536H5.42155H5.42773H5.43392H5.4401H5.44629H5.45247H5.45866H5.46484H5.47103H5.47721H5.4834H5.48958H5.49577H5.50195H5.50814H5.51432H5.52051H5.52669H5.53288H5.53906H5.54525H5.55143H5.55762H5.5638H5.56999H5.57617H5.58236H5.58854H5.59473H5.60091H5.6071H5.61328H5.61946H5.62565H5.63183H5.63802H5.6442H5.65039H5.65657H5.66276H5.66894H5.67513H5.68131H5.6875H5.69368H5.69987H5.70605H5.71224H5.71842H5.72461H5.73079H5.73698H5.74316H5.74935H5.75553H5.76172H5.7679H5.77409H5.78027H5.78646H5.79264H5.79883H5.80501H5.8112H5.81738H5.82357H5.82975H5.83594H5.84212H5.84831H5.85449H5.86068H5.86686H5.87305H5.87923H5.88542H5.8916H5.89779H5.90397H5.91016H5.91634H5.92252H5.92871H5.93489H5.94108H5.94726H5.95345H5.95963H5.96582H5.972H5.97819H5.98437H5.99056H5.99674H6.00293H6.00911H6.0153H6.02148H6.02767H6.03385H6.04004H6.04622H6.05241H6.05859H6.06478H6.07096H6.07715H6.08333H6.08952H6.0957H6.10189H6.10807H6.11426H6.12044H6.12663H6.13281H6.139H6.14518H6.15137H6.15755H6.16374H6.16992H6.17611H6.18229H6.18848H6.19466H6.20084H6.20703H6.21321H6.2194H6.22558H6.23177H6.23795H6.24414H6.25032H6.25651H6.26269H6.26888H6.27506H6.28125H6.28743H6.29362H6.2998H6.30599H6.31217H6.31836H6.32454H6.33073H6.33691H6.3431H6.34928H6.35547H6.36165H6.36784H6.37402H6.38021H6.38639H6.39258H6.39876H6.40495H6.41113H6.41732H6.4235H6.42969H6.43587H6.44206H6.44824H6.45443H6.46061H6.46679H6.47298H6.47917H6.48535H6.49154H6.49772H6.5039H6.51009H6.51627H6.52246H6.52864H6.53483H6.54101H6.5472H6.55338H6.55957H6.56575H6.57194H6.57812H6.58431H6.59049H6.59668H6.60286H6.60905H6.61523H6.62142H6.6276H6.63379H6.63997H6.64616H6.65234H6.65853H6.66471H6.6709H6.67708H6.68327H6.68945H6.69564H6.70182H6.70801H6.71419H6.72038H6.72656H6.73275H6.73893H6.74512H6.7513H6.75749H6.76367H6.76986H6.77604H6.78222H6.78841H6.79459H6.80078H6.80696H6.81315H6.81933H6.82552H6.8317H6.83789H6.84407H6.85026H6.85644H6.86263H6.86881H6.875H6.88118H6.88737H6.89355H6.89974H6.90592H6.91211H6.91829H6.92448H6.93066H6.93685H6.94303H6.94922H6.9554H6.96159H6.96777H6.97396H6.98014H6.98633H6.99251H6.9987H7.00488H7.01107H7.01725H7.02344H7.02962H7.03581H7.04199H7.04818H7.05436H7.06054H7.06673H7.07291H7.0791H7.08528H7.09147H7.09765H7.10384H7.11002H7.11621H7.12239H7.12858H7.13476H7.14095H7.14713H7.15332H7.1595H7.16569H7.17187H7.17806H7.18424H7.19043H7.19661H7.2028H7.20898C7.48513 17.4167 7.70898 17.6405 7.70898 17.9167C7.70898 18.1928 7.48513 18.4167 7.20898 18.4167H7.2028H7.19661H7.19043H7.18424H7.17806H7.17187H7.16569H7.1595H7.15332H7.14713H7.14095H7.13476H7.12858H7.12239H7.11621H7.11002H7.10384H7.09765H7.09147H7.08528H7.0791H7.07291H7.06673H7.06054H7.05436H7.04818H7.04199H7.03581H7.02962H7.02344H7.01725H7.01107H7.00488H6.9987H6.99251H6.98633H6.98014H6.97396H6.96777H6.96159H6.9554H6.94922H6.94303H6.93685H6.93066H6.92448H6.91829H6.91211H6.90592H6.89974H6.89355H6.88737H6.88118H6.875H6.86881H6.86263H6.85644H6.85026H6.84407H6.83789H6.8317H6.82552H6.81933H6.81315H6.80696H6.80078H6.79459H6.78841H6.78222H6.77604H6.76986H6.76367H6.75749H6.7513H6.74512H6.73893H6.73275H6.72656H6.72038H6.71419H6.70801H6.70182H6.69564H6.68945H6.68327H6.67708H6.6709H6.66471H6.65853H6.65234H6.64616H6.63997H6.63379H6.6276H6.62142H6.61523H6.60905H6.60286H6.59668H6.59049H6.58431H6.57812H6.57194H6.56575H6.55957H6.55338H6.5472H6.54101H6.53483H6.52864H6.52246H6.51627H6.51009H6.5039H6.49772H6.49154H6.48535H6.47917H6.47298H6.46679H6.46061H6.45443H6.44824H6.44206H6.43587H6.42969H6.4235H6.41732H6.41113H6.40495H6.39876H6.39258H6.38639H6.38021H6.37402H6.36784H6.36165H6.35547H6.34928H6.3431H6.33691H6.33073H6.32454H6.31836H6.31217H6.30599H6.2998H6.29362H6.28743H6.28125H6.27506H6.26888H6.26269H6.25651H6.25032H6.24414H6.23795H6.23177H6.22558H6.2194H6.21321H6.20703H6.20084H6.19466H6.18848H6.18229H6.17611H6.16992H6.16374H6.15755H6.15137H6.14518H6.139H6.13281H6.12663H6.12044H6.11426H6.10807H6.10189H6.0957H6.08952H6.08333H6.07715H6.07096H6.06478H6.05859H6.05241H6.04622H6.04004H6.03385H6.02767H6.02148H6.0153H6.00911H6.00293H5.99674H5.99056H5.98437H5.97819H5.972H5.96582H5.95963H5.95345H5.94726H5.94108H5.93489H5.92871H5.92252H5.91634H5.91016H5.90397H5.89779H5.8916H5.88542H5.87923H5.87305H5.86686H5.86068H5.85449H5.84831H5.84212H5.83594H5.82975H5.82357H5.81738H5.8112H5.80501H5.79883H5.79264H5.78646H5.78027H5.77409H5.7679H5.76172H5.75553H5.74935H5.74316H5.73698H5.73079H5.72461H5.71842H5.71224H5.70605H5.69987H5.69368H5.6875H5.68131H5.67513H5.66894H5.66276H5.65657H5.65039H5.6442H5.63802H5.63183H5.62565H5.61946H5.61328H5.6071H5.60091H5.59473H5.58854H5.58236H5.57617H5.56999H5.5638H5.55762H5.55143H5.54525H5.53906H5.53288H5.52669H5.52051H5.51432H5.50814H5.50195H5.49577H5.48958H5.4834H5.47721H5.47103H5.46484H5.45866H5.45247H5.44629H5.4401H5.43392H5.42773H5.42155H5.41536H5.40918H5.40299H5.39681H5.39062H5.38444H5.37825H5.37207H5.36588H5.3597H5.35351H5.34733H5.34114H5.33496H5.32877H5.32259H5.31641H5.31022H5.30404H5.29785H5.29167H5.28548H5.2793H5.27311H5.26693H5.26074H5.25456H5.24837H5.24219H5.236H5.22982H5.22363H5.21745H5.21126H5.20508H5.19889H5.19271H5.18652H5.18034H5.17415H5.16797H5.16178H5.1556H5.14941H5.14323H5.13704H5.13086H5.12467H5.11849H5.1123H5.10612H5.09993H5.09375H5.08756H5.08138H5.07519H5.06901H5.06282H5.05664H5.05045H5.04427H5.03808H5.0319H5.02572H5.01953H5.01335H5.00716H5.00098H4.99479H4.98861H4.98242H4.97624H4.97005H4.96387H4.95768H4.9515H4.94531H4.93913H4.93294H4.92676H4.92057H4.91439H4.9082H4.90202H4.89583H4.88965H4.88346H4.87728H4.87109H4.86491H4.85872H4.85254H4.84635H4.84017H4.83398H4.8278H4.82161H4.81543H4.80924H4.80306H4.79687H4.79069H4.7845H4.77832H4.77213H4.76595H4.75976H4.75358H4.7474H4.74121H4.73503H4.72884H4.72266H4.71647H4.71029H4.7041H4.69792H4.69173H4.68555H4.67936H4.67318H4.66699H4.66081H4.65462H4.64844H4.64225H4.63607H4.62988H4.6237H4.61751H4.61133H4.60514H4.59896H4.59277H4.58659H4.5804H4.57422H4.56803H4.56185H4.55566H4.54948H4.54329H4.53711H4.53092H4.52474H4.51855H4.51237H4.50618H4.5H4.49381H4.48763H4.48144H4.47526H4.46907H4.46289H4.45671H4.45052H4.44434H4.43815H4.43197H4.42578H4.4196H4.41341H4.40723H4.40104H4.39486H4.38867H4.38249H4.3763H4.37012H4.36393H4.35775H4.35156H4.34538H4.33919H4.33301H4.32682H4.32064H4.31445H4.30827H4.30208H4.2959H4.28971H4.28353H4.27734H4.27116H4.26497H4.25879H4.2526H4.24642H4.24023H4.23405H4.22786H4.22168H4.21549H4.20931H4.20312H4.19694H4.19075H4.18457H4.17838H4.1722H4.16602H4.15983H4.15365H4.14746H4.14128H4.13509H4.12891H4.12272H4.11654H4.11035H4.10417H4.09798H4.0918H4.08561H4.07943H4.07324H4.06706H4.06087H4.05469H4.0485H4.04232C3.21389 18.4167 2.54232 17.7451 2.54232 16.9167V13.75C2.54232 13.4739 2.76618 13.25 3.04232 13.25ZM12.6256 3.83333L15.7922 3.83327C16.0684 3.83325 16.2923 4.05715 16.2923 4.33331V7.5C16.2923 7.77614 16.5162 8 16.7923 8C17.0685 8 17.2923 7.77614 17.2923 7.5V4.33331C17.2923 3.50478 16.6206 2.8332 15.7921 2.83327L12.6256 2.83333C12.3495 2.83333 12.1256 3.05719 12.1256 3.33333C12.1256 3.60948 12.3495 3.83333 12.6256 3.83333Z" fill="#1B1F26"/>
</svg>
