<svg width="14" height="14" viewBox="0 0 14 14" fill="none" xmlns="http://www.w3.org/2000/svg">
<rect x="0.249023" y="0.25" width="13.5" height="13.5" rx="6.75" fill="white"/>
<path fill-rule="evenodd" clip-rule="evenodd" d="M4.66569 3.66669C4.1134 3.66669 3.66569 4.1144 3.66569 4.66669V9.33335C3.66569 9.88564 4.1134 10.3334 4.66569 10.3334H9.33235C9.88464 10.3334 10.3324 9.88564 10.3324 9.33335V4.66669C10.3324 4.1144 9.88464 3.66669 9.33235 3.66669H4.66569ZM5.83231 6.5C6.2005 6.5 6.49898 6.20152 6.49898 5.83333C6.49898 5.46514 6.2005 5.16667 5.83231 5.16667C5.46412 5.16667 5.16565 5.46514 5.16565 5.83333C5.16565 6.20152 5.46412 6.5 5.83231 6.5ZM5.85544 7.53844C5.64141 7.42011 5.37318 7.47396 5.22142 7.66575L4.59307 8.45983C4.42014 8.67836 4.57578 9 4.85446 9H7.20715L7.20897 9H9.36845C9.63622 9 9.79469 8.70022 9.6439 8.47895L8.66423 7.04139C8.47848 6.76882 8.08433 6.74764 7.87043 6.99873L6.91272 8.123L5.85544 7.53844Z" fill="#3A8BFF"/>
<rect x="0.249023" y="0.25" width="13.5" height="13.5" rx="6.75" stroke="#3A8BFF" stroke-width="0.5"/>
</svg>
