<svg xmlns="http://www.w3.org/2000/svg" width="38" height="38" fill="none" viewBox="0 0 38 38"><path fill="#449AFF" d="M7.16171 2.77148C6.76563 2.77148 6.33512 2.9272 6.02515 3.25592C5.7324 3.58464 5.54297 3.98257 5.54297 4.3978V33.6022C5.54297 34.0001 5.69795 34.4327 6.02515 34.7441C6.35234 35.0728 6.74841 35.2285 7.16171 35.2285H30.8401C31.2362 35.2285 31.6667 35.0728 31.9767 34.7441C32.3038 34.4154 32.4588 34.0174 32.4588 33.6022V11.9757L23.3147 2.77148H7.16171Z"/><path fill="#B5D7FF" d="M32.4613 11.976L24.7527 12.0462C24.348 12.0462 23.908 11.8893 23.5913 11.5581C23.2569 11.2618 23.3166 10.826 23.3166 10.4077V2.77148L32.4613 11.976Z"/><path fill="#fff" d="M14.9023 15.523C14.9023 14.628 15.8486 14.0713 16.6001 14.5243L24.2927 19.1605C25.0351 19.6079 25.0351 20.7105 24.2927 21.1579L16.6001 25.7941C15.8486 26.247 14.9023 25.6904 14.9023 24.7954V15.523Z"/></svg>