<svg width="38" height="38" viewBox="0 0 38 38" fill="none" xmlns="http://www.w3.org/2000/svg">
<path d="M7.15781 2.37695C6.76173 2.37695 6.33121 2.53647 6.02124 2.87322C5.72849 3.20998 5.53906 3.61762 5.53906 4.043V33.9609C5.53906 34.3686 5.69405 34.8117 6.02124 35.1307C6.34843 35.4674 6.74451 35.627 7.15781 35.627H30.8362C31.2323 35.627 31.6628 35.4674 31.9728 35.1307C32.3 34.7939 32.455 34.3863 32.455 33.9609V11.8061L23.3108 2.37695H7.15781Z" fill="#44BBFF"/>
<path d="M22.0616 23.4013L20.0442 15.7273C19.9813 15.4877 19.7647 15.3207 19.517 15.3207H18.4696C18.2218 15.3207 18.0052 15.4878 17.9423 15.7274L15.9267 23.4011L14.0103 15.7337C13.9497 15.491 13.7316 15.3207 13.4814 15.3207H12.5388C12.1763 15.3207 11.9147 15.6679 12.0148 16.0164L14.8394 25.851C14.9065 26.0847 15.1203 26.2457 15.3634 26.2457H16.4647C16.7124 26.2457 16.929 26.0787 16.992 25.8392L18.9932 18.2301L20.9945 25.8392C21.0575 26.0787 21.274 26.2457 21.5217 26.2457H22.61C22.8529 26.2457 23.0665 26.0851 23.1338 25.8517L25.9726 16.0171C26.0732 15.6685 25.8116 15.3207 25.4488 15.3207H24.507C24.2568 15.3207 24.0387 15.491 23.978 15.7337L22.0616 23.4013Z" fill="white" stroke="white" stroke-width="0.2375"/>
<path d="M32.4575 11.8044L24.7488 11.8763C24.3441 11.8763 23.9041 11.7156 23.5874 11.3763C23.253 11.0728 23.3127 10.6263 23.3127 10.1978V2.375L32.4575 11.8044Z" fill="#ACE1FF"/>
</svg>
